solid NEMO4-perpendicularProp - PropDisk-1
   facet normal 8.544643e-018 3.078532e-002 9.995260e-001
      outer loop
         vertex -5.650122e-001 1.134065e-004 1.659307e-001
         vertex -5.600122e-001 1.134065e-004 1.659307e-001
         vertex -5.600122e-001 2.589319e-002 1.647388e-001
      endloop
   endfacet
   facet normal 1.708928e-017 6.157063e-002 9.981027e-001
      outer loop
         vertex -5.650122e-001 1.134065e-004 1.659307e-001
         vertex -5.600122e-001 2.589319e-002 1.647388e-001
         vertex -5.650122e-001 2.589319e-002 1.647388e-001
      endloop
   endfacet
   facet normal 3.410567e-017 1.228786e-001 9.924217e-001
      outer loop
         vertex -5.650122e-001 2.589319e-002 1.647388e-001
         vertex -5.600122e-001 2.589319e-002 1.647388e-001
         vertex -5.600122e-001 5.145302e-002 1.611734e-001
      endloop
   endfacet
   facet normal 4.257741e-017 1.534013e-001 9.881639e-001
      outer loop
         vertex -5.650122e-001 2.589319e-002 1.647388e-001
         vertex -5.600122e-001 5.145302e-002 1.611734e-001
         vertex -5.650122e-001 5.145302e-002 1.611734e-001
      endloop
   endfacet
   facet normal 5.937572e-017 2.139236e-001 9.768504e-001
      outer loop
         vertex -5.650122e-001 5.145302e-002 1.611734e-001
         vertex -5.600122e-001 5.145302e-002 1.611734e-001
         vertex -5.600122e-001 7.657485e-002 1.552648e-001
      endloop
   endfacet
   facet normal 6.770228e-017 2.439232e-001 9.697946e-001
      outer loop
         vertex -5.650122e-001 5.145302e-002 1.611734e-001
         vertex -5.600122e-001 7.657485e-002 1.552648e-001
         vertex -5.650122e-001 7.657485e-002 1.552648e-001
      endloop
   endfacet
   facet normal 8.413920e-017 3.031434e-001 9.529449e-001
      outer loop
         vertex -5.650122e-001 7.657485e-002 1.552648e-001
         vertex -5.600122e-001 7.657485e-002 1.552648e-001
         vertex -5.600122e-001 1.010443e-001 1.470634e-001
      endloop
   endfacet
   facet normal 9.224954e-017 3.323640e-001 9.431512e-001
      outer loop
         vertex -5.650122e-001 7.657485e-002 1.552648e-001
         vertex -5.600122e-001 1.010443e-001 1.470634e-001
         vertex -5.650122e-001 1.010443e-001 1.470634e-001
      endloop
   endfacet
   facet normal 1.081848e-016 3.897769e-001 9.209093e-001
      outer loop
         vertex -5.650122e-001 1.010443e-001 1.470634e-001
         vertex -5.600122e-001 1.010443e-001 1.470634e-001
         vertex -5.600122e-001 1.246527e-001 1.366393e-001
      endloop
   endfacet
   facet normal 1.160098e-016 4.179692e-001 9.084612e-001
      outer loop
         vertex -5.650122e-001 1.010443e-001 1.470634e-001
         vertex -5.600122e-001 1.246527e-001 1.366393e-001
         vertex -5.650122e-001 1.246527e-001 1.366393e-001
      endloop
   endfacet
   facet normal 1.313075e-016 4.730850e-001 8.810168e-001
      outer loop
         vertex -5.650122e-001 1.246527e-001 1.366393e-001
         vertex -5.600122e-001 1.246527e-001 1.366393e-001
         vertex -5.600122e-001 1.471986e-001 1.240813e-001
      endloop
   endfacet
   facet normal 1.387802e-016 5.000085e-001 8.660205e-001
      outer loop
         vertex -5.650122e-001 1.246527e-001 1.366393e-001
         vertex -5.600122e-001 1.471986e-001 1.240813e-001
         vertex -5.650122e-001 1.471986e-001 1.240813e-001
      endloop
   endfacet
   facet normal 1.533098e-016 5.523569e-001 8.336077e-001
      outer loop
         vertex -5.650122e-001 1.471986e-001 1.240813e-001
         vertex -5.600122e-001 1.471986e-001 1.240813e-001
         vertex -5.600122e-001 1.684895e-001 1.094967e-001
      endloop
   endfacet
   facet normal 1.603667e-016 5.777818e-001 8.161913e-001
      outer loop
         vertex -5.650122e-001 1.471986e-001 1.240813e-001
         vertex -5.600122e-001 1.684895e-001 1.094967e-001
         vertex -5.650122e-001 1.684895e-001 1.094967e-001
      endloop
   endfacet
   facet normal 1.740042e-016 6.269162e-001 7.790867e-001
      outer loop
         vertex -5.650122e-001 1.684895e-001 1.094967e-001
         vertex -5.600122e-001 1.684895e-001 1.094967e-001
         vertex -5.600122e-001 1.883440e-001 9.300977e-002
      endloop
   endfacet
   facet normal 1.805849e-016 6.506256e-001 7.593986e-001
      outer loop
         vertex -5.650122e-001 1.684895e-001 1.094967e-001
         vertex -5.600122e-001 1.883440e-001 9.300977e-002
         vertex -5.650122e-001 1.883440e-001 9.300977e-002
      endloop
   endfacet
   facet normal 1.932140e-016 6.961269e-001 7.179187e-001
      outer loop
         vertex -5.650122e-001 1.883440e-001 9.300977e-002
         vertex -5.600122e-001 1.883440e-001 9.300977e-002
         vertex -5.600122e-001 2.065925e-001 7.476124e-002
      endloop
   endfacet
   facet normal 1.992625e-016 7.179187e-001 6.961269e-001
      outer loop
         vertex -5.650122e-001 1.883440e-001 9.300977e-002
         vertex -5.600122e-001 2.065925e-001 7.476124e-002
         vertex -5.650122e-001 2.065925e-001 7.476124e-002
      endloop
   endfacet
   facet normal 2.107755e-016 7.593986e-001 6.506256e-001
      outer loop
         vertex -5.650122e-001 2.065925e-001 7.476124e-002
         vertex -5.600122e-001 2.065925e-001 7.476124e-002
         vertex -5.600122e-001 2.230794e-001 5.490680e-002
      endloop
   endfacet
   facet normal 2.162400e-016 7.790867e-001 6.269162e-001
      outer loop
         vertex -5.650122e-001 2.065925e-001 7.476124e-002
         vertex -5.600122e-001 2.230794e-001 5.490680e-002
         vertex -5.650122e-001 2.230794e-001 5.490680e-002
      endloop
   endfacet
   facet normal 2.265386e-016 8.161913e-001 5.777818e-001
      outer loop
         vertex -5.650122e-001 2.230794e-001 5.490680e-002
         vertex -5.600122e-001 2.230794e-001 5.490680e-002
         vertex -5.600122e-001 2.376641e-001 3.361582e-002
      endloop
   endfacet
   facet normal 2.313726e-016 8.336077e-001 5.523569e-001
      outer loop
         vertex -5.650122e-001 2.230794e-001 5.490680e-002
         vertex -5.600122e-001 2.376641e-001 3.361582e-002
         vertex -5.650122e-001 2.376641e-001 3.361582e-002
      endloop
   endfacet
   facet normal 2.403690e-016 8.660206e-001 5.000084e-001
      outer loop
         vertex -5.650122e-001 2.376641e-001 3.361582e-002
         vertex -5.600122e-001 2.376641e-001 3.361582e-002
         vertex -5.600122e-001 2.502220e-001 1.106997e-002
      endloop
   endfacet
   facet normal 2.445313e-016 8.810169e-001 4.730849e-001
      outer loop
         vertex -5.650122e-001 2.376641e-001 3.361582e-002
         vertex -5.600122e-001 2.502220e-001 1.106997e-002
         vertex -5.650122e-001 2.502220e-001 1.106997e-002
      endloop
   endfacet
   facet normal 2.521486e-016 9.084612e-001 4.179692e-001
      outer loop
         vertex -5.650122e-001 2.502220e-001 1.106997e-002
         vertex -5.600122e-001 2.502220e-001 1.106997e-002
         vertex -5.600122e-001 2.606461e-001 -1.253840e-002
      endloop
   endfacet
   facet normal 2.556037e-016 9.209093e-001 3.897769e-001
      outer loop
         vertex -5.650122e-001 2.502220e-001 1.106997e-002
         vertex -5.600122e-001 2.606461e-001 -1.253840e-002
         vertex -5.650122e-001 2.606461e-001 -1.253840e-002
      endloop
   endfacet
   facet normal 2.617770e-016 9.431512e-001 3.323640e-001
      outer loop
         vertex -5.650122e-001 2.606461e-001 -1.253840e-002
         vertex -5.600122e-001 2.606461e-001 -1.253840e-002
         vertex -5.600122e-001 2.688475e-001 -3.700788e-002
      endloop
   endfacet
   facet normal 2.644954e-016 9.529449e-001 3.031434e-001
      outer loop
         vertex -5.650122e-001 2.606461e-001 -1.253840e-002
         vertex -5.600122e-001 2.688475e-001 -3.700788e-002
         vertex -5.650122e-001 2.688475e-001 -3.700788e-002
      endloop
   endfacet
   facet normal 2.691721e-016 9.697946e-001 2.439232e-001
      outer loop
         vertex -5.650122e-001 2.688475e-001 -3.700788e-002
         vertex -5.600122e-001 2.688475e-001 -3.700788e-002
         vertex -5.600122e-001 2.747561e-001 -6.212971e-002
      endloop
   endfacet
   facet normal 2.711305e-016 9.768504e-001 2.139235e-001
      outer loop
         vertex -5.650122e-001 2.688475e-001 -3.700788e-002
         vertex -5.600122e-001 2.747561e-001 -6.212971e-002
         vertex -5.650122e-001 2.747561e-001 -6.212971e-002
      endloop
   endfacet
   facet normal 2.742706e-016 9.881639e-001 1.534013e-001
      outer loop
         vertex -5.650122e-001 2.747561e-001 -6.212971e-002
         vertex -5.600122e-001 2.747561e-001 -6.212971e-002
         vertex -5.600122e-001 2.783215e-001 -8.768954e-002
      endloop
   endfacet
   facet normal 2.754524e-016 9.924217e-001 1.228786e-001
      outer loop
         vertex -5.650122e-001 2.747561e-001 -6.212971e-002
         vertex -5.600122e-001 2.783215e-001 -8.768954e-002
         vertex -5.650122e-001 2.783215e-001 -8.768954e-002
      endloop
   endfacet
   facet normal 2.770292e-016 9.981027e-001 6.157063e-002
      outer loop
         vertex -5.650122e-001 2.783215e-001 -8.768954e-002
         vertex -5.600122e-001 2.783215e-001 -8.768954e-002
         vertex -5.600122e-001 2.795134e-001 -1.134693e-001
      endloop
   endfacet
   facet normal 2.774242e-016 9.995260e-001 3.078532e-002
      outer loop
         vertex -5.650122e-001 2.783215e-001 -8.768954e-002
         vertex -5.600122e-001 2.795134e-001 -1.134693e-001
         vertex -5.650122e-001 2.795134e-001 -1.134693e-001
      endloop
   endfacet
   facet normal 2.774242e-016 9.995260e-001 -3.078532e-002
      outer loop
         vertex -5.650122e-001 2.795134e-001 -1.134693e-001
         vertex -5.600122e-001 2.795134e-001 -1.134693e-001
         vertex -5.600122e-001 2.783215e-001 -1.392491e-001
      endloop
   endfacet
   facet normal 2.770292e-016 9.981027e-001 -6.157063e-002
      outer loop
         vertex -5.650122e-001 2.795134e-001 -1.134693e-001
         vertex -5.600122e-001 2.783215e-001 -1.392491e-001
         vertex -5.650122e-001 2.783215e-001 -1.392491e-001
      endloop
   endfacet
   facet normal 2.754524e-016 9.924217e-001 -1.228786e-001
      outer loop
         vertex -5.650122e-001 2.783215e-001 -1.392491e-001
         vertex -5.600122e-001 2.783215e-001 -1.392491e-001
         vertex -5.600122e-001 2.747561e-001 -1.648089e-001
      endloop
   endfacet
   facet normal 2.742706e-016 9.881639e-001 -1.534013e-001
      outer loop
         vertex -5.650122e-001 2.783215e-001 -1.392491e-001
         vertex -5.600122e-001 2.747561e-001 -1.648089e-001
         vertex -5.650122e-001 2.747561e-001 -1.648089e-001
      endloop
   endfacet
   facet normal 2.711305e-016 9.768504e-001 -2.139236e-001
      outer loop
         vertex -5.650122e-001 2.747561e-001 -1.648089e-001
         vertex -5.600122e-001 2.747561e-001 -1.648089e-001
         vertex -5.600122e-001 2.688475e-001 -1.899308e-001
      endloop
   endfacet
   facet normal 2.691721e-016 9.697946e-001 -2.439232e-001
      outer loop
         vertex -5.650122e-001 2.747561e-001 -1.648089e-001
         vertex -5.600122e-001 2.688475e-001 -1.899308e-001
         vertex -5.650122e-001 2.688475e-001 -1.899308e-001
      endloop
   endfacet
   facet normal 2.644954e-016 9.529449e-001 -3.031434e-001
      outer loop
         vertex -5.650122e-001 2.688475e-001 -1.899308e-001
         vertex -5.600122e-001 2.688475e-001 -1.899308e-001
         vertex -5.600122e-001 2.606461e-001 -2.144002e-001
      endloop
   endfacet
   facet normal 2.617770e-016 9.431512e-001 -3.323640e-001
      outer loop
         vertex -5.650122e-001 2.688475e-001 -1.899308e-001
         vertex -5.600122e-001 2.606461e-001 -2.144002e-001
         vertex -5.650122e-001 2.606461e-001 -2.144002e-001
      endloop
   endfacet
   facet normal 2.556037e-016 9.209093e-001 -3.897769e-001
      outer loop
         vertex -5.650122e-001 2.606461e-001 -2.144002e-001
         vertex -5.600122e-001 2.606461e-001 -2.144002e-001
         vertex -5.600122e-001 2.502220e-001 -2.380086e-001
      endloop
   endfacet
   facet normal 2.521486e-016 9.084612e-001 -4.179692e-001
      outer loop
         vertex -5.650122e-001 2.606461e-001 -2.144002e-001
         vertex -5.600122e-001 2.502220e-001 -2.380086e-001
         vertex -5.650122e-001 2.502220e-001 -2.380086e-001
      endloop
   endfacet
   facet normal 2.445313e-016 8.810168e-001 -4.730850e-001
      outer loop
         vertex -5.650122e-001 2.502220e-001 -2.380086e-001
         vertex -5.600122e-001 2.502220e-001 -2.380086e-001
         vertex -5.600122e-001 2.376641e-001 -2.605545e-001
      endloop
   endfacet
   facet normal 2.403690e-016 8.660205e-001 -5.000085e-001
      outer loop
         vertex -5.650122e-001 2.502220e-001 -2.380086e-001
         vertex -5.600122e-001 2.376641e-001 -2.605545e-001
         vertex -5.650122e-001 2.376641e-001 -2.605545e-001
      endloop
   endfacet
   facet normal 2.313726e-016 8.336077e-001 -5.523569e-001
      outer loop
         vertex -5.650122e-001 2.376641e-001 -2.605545e-001
         vertex -5.600122e-001 2.376641e-001 -2.605545e-001
         vertex -5.600122e-001 2.230794e-001 -2.818455e-001
      endloop
   endfacet
   facet normal 2.265386e-016 8.161913e-001 -5.777818e-001
      outer loop
         vertex -5.650122e-001 2.376641e-001 -2.605545e-001
         vertex -5.600122e-001 2.230794e-001 -2.818455e-001
         vertex -5.650122e-001 2.230794e-001 -2.818455e-001
      endloop
   endfacet
   facet normal 2.162400e-016 7.790867e-001 -6.269162e-001
      outer loop
         vertex -5.650122e-001 2.230794e-001 -2.818455e-001
         vertex -5.600122e-001 2.230794e-001 -2.818455e-001
         vertex -5.600122e-001 2.065925e-001 -3.016999e-001
      endloop
   endfacet
   facet normal 2.107755e-016 7.593986e-001 -6.506256e-001
      outer loop
         vertex -5.650122e-001 2.230794e-001 -2.818455e-001
         vertex -5.600122e-001 2.065925e-001 -3.016999e-001
         vertex -5.650122e-001 2.065925e-001 -3.016999e-001
      endloop
   endfacet
   facet normal 1.992625e-016 7.179187e-001 -6.961269e-001
      outer loop
         vertex -5.650122e-001 2.065925e-001 -3.016999e-001
         vertex -5.600122e-001 2.065925e-001 -3.016999e-001
         vertex -5.600122e-001 1.883440e-001 -3.199484e-001
      endloop
   endfacet
   facet normal 1.932140e-016 6.961269e-001 -7.179187e-001
      outer loop
         vertex -5.650122e-001 2.065925e-001 -3.016999e-001
         vertex -5.600122e-001 1.883440e-001 -3.199484e-001
         vertex -5.650122e-001 1.883440e-001 -3.199484e-001
      endloop
   endfacet
   facet normal 1.805849e-016 6.506256e-001 -7.593986e-001
      outer loop
         vertex -5.650122e-001 1.883440e-001 -3.199484e-001
         vertex -5.600122e-001 1.883440e-001 -3.199484e-001
         vertex -5.600122e-001 1.684895e-001 -3.364353e-001
      endloop
   endfacet
   facet normal 1.740042e-016 6.269162e-001 -7.790867e-001
      outer loop
         vertex -5.650122e-001 1.883440e-001 -3.199484e-001
         vertex -5.600122e-001 1.684895e-001 -3.364353e-001
         vertex -5.650122e-001 1.684895e-001 -3.364353e-001
      endloop
   endfacet
   facet normal 1.603667e-016 5.777818e-001 -8.161913e-001
      outer loop
         vertex -5.650122e-001 1.684895e-001 -3.364353e-001
         vertex -5.600122e-001 1.684895e-001 -3.364353e-001
         vertex -5.600122e-001 1.471986e-001 -3.510200e-001
      endloop
   endfacet
   facet normal 1.533098e-016 5.523569e-001 -8.336077e-001
      outer loop
         vertex -5.650122e-001 1.684895e-001 -3.364353e-001
         vertex -5.600122e-001 1.471986e-001 -3.510200e-001
         vertex -5.650122e-001 1.471986e-001 -3.510200e-001
      endloop
   endfacet
   facet normal 1.387802e-016 5.000084e-001 -8.660206e-001
      outer loop
         vertex -5.650122e-001 1.471986e-001 -3.510200e-001
         vertex -5.600122e-001 1.471986e-001 -3.510200e-001
         vertex -5.600122e-001 1.246527e-001 -3.635780e-001
      endloop
   endfacet
   facet normal 1.313074e-016 4.730849e-001 -8.810169e-001
      outer loop
         vertex -5.650122e-001 1.471986e-001 -3.510200e-001
         vertex -5.600122e-001 1.246527e-001 -3.635780e-001
         vertex -5.650122e-001 1.246527e-001 -3.635780e-001
      endloop
   endfacet
   facet normal 1.160098e-016 4.179692e-001 -9.084612e-001
      outer loop
         vertex -5.650122e-001 1.246527e-001 -3.635780e-001
         vertex -5.600122e-001 1.246527e-001 -3.635780e-001
         vertex -5.600122e-001 1.010443e-001 -3.740021e-001
      endloop
   endfacet
   facet normal 1.081848e-016 3.897769e-001 -9.209093e-001
      outer loop
         vertex -5.650122e-001 1.246527e-001 -3.635780e-001
         vertex -5.600122e-001 1.010443e-001 -3.740021e-001
         vertex -5.650122e-001 1.010443e-001 -3.740021e-001
      endloop
   endfacet
   facet normal 9.224954e-017 3.323640e-001 -9.431512e-001
      outer loop
         vertex -5.650122e-001 1.010443e-001 -3.740021e-001
         vertex -5.600122e-001 1.010443e-001 -3.740021e-001
         vertex -5.600122e-001 7.657485e-002 -3.822034e-001
      endloop
   endfacet
   facet normal 8.413920e-017 3.031434e-001 -9.529449e-001
      outer loop
         vertex -5.650122e-001 1.010443e-001 -3.740021e-001
         vertex -5.600122e-001 7.657485e-002 -3.822034e-001
         vertex -5.650122e-001 7.657485e-002 -3.822034e-001
      endloop
   endfacet
   facet normal 6.770228e-017 2.439232e-001 -9.697946e-001
      outer loop
         vertex -5.650122e-001 7.657485e-002 -3.822034e-001
         vertex -5.600122e-001 7.657485e-002 -3.822034e-001
         vertex -5.600122e-001 5.145302e-002 -3.881120e-001
      endloop
   endfacet
   facet normal 5.937571e-017 2.139235e-001 -9.768504e-001
      outer loop
         vertex -5.650122e-001 7.657485e-002 -3.822034e-001
         vertex -5.600122e-001 5.145302e-002 -3.881120e-001
         vertex -5.650122e-001 5.145302e-002 -3.881120e-001
      endloop
   endfacet
   facet normal 4.257741e-017 1.534013e-001 -9.881639e-001
      outer loop
         vertex -5.650122e-001 5.145302e-002 -3.881120e-001
         vertex -5.600122e-001 5.145302e-002 -3.881120e-001
         vertex -5.600122e-001 2.589319e-002 -3.916775e-001
      endloop
   endfacet
   facet normal 3.410567e-017 1.228786e-001 -9.924217e-001
      outer loop
         vertex -5.650122e-001 5.145302e-002 -3.881120e-001
         vertex -5.600122e-001 2.589319e-002 -3.916775e-001
         vertex -5.650122e-001 2.589319e-002 -3.916775e-001
      endloop
   endfacet
   facet normal 1.708928e-017 6.157063e-002 -9.981027e-001
      outer loop
         vertex -5.650122e-001 2.589319e-002 -3.916775e-001
         vertex -5.600122e-001 2.589319e-002 -3.916775e-001
         vertex -5.600122e-001 1.134065e-004 -3.928693e-001
      endloop
   endfacet
   facet normal 8.544643e-018 3.078532e-002 -9.995260e-001
      outer loop
         vertex -5.650122e-001 2.589319e-002 -3.916775e-001
         vertex -5.600122e-001 1.134065e-004 -3.928693e-001
         vertex -5.650122e-001 1.134065e-004 -3.928693e-001
      endloop
   endfacet
   facet normal -2.775558e-016 -1.000000e+000 1.531303e-032
      outer loop
         vertex -5.650122e-001 1.134065e-004 1.659307e-001
         vertex -5.650122e-001 1.134065e-004 -3.928693e-001
         vertex -5.600122e-001 1.134065e-004 1.659307e-001
      endloop
   endfacet
   facet normal -2.775558e-016 -1.000000e+000 1.531303e-032
      outer loop
         vertex -5.600122e-001 1.134065e-004 1.659307e-001
         vertex -5.650122e-001 1.134065e-004 -3.928693e-001
         vertex -5.600122e-001 1.134065e-004 -3.928693e-001
      endloop
   endfacet
   facet normal -1.000000e+000 2.775558e-016 -1.531303e-032
      outer loop
         vertex -5.650122e-001 2.688475e-001 -3.700788e-002
         vertex -5.650122e-001 2.747561e-001 -6.212971e-002
         vertex -5.650122e-001 1.134065e-004 -3.928693e-001
      endloop
   endfacet
   facet normal -1.000000e+000 2.775558e-016 -1.531303e-032
      outer loop
         vertex -5.650122e-001 5.145302e-002 1.611734e-001
         vertex -5.650122e-001 1.134065e-004 -3.928693e-001
         vertex -5.650122e-001 2.589319e-002 1.647388e-001
      endloop
   endfacet
   facet normal -1.000000e+000 2.775558e-016 -1.531303e-032
      outer loop
         vertex -5.650122e-001 2.589319e-002 1.647388e-001
         vertex -5.650122e-001 1.134065e-004 -3.928693e-001
         vertex -5.650122e-001 1.134065e-004 1.659307e-001
      endloop
   endfacet
   facet normal -1.000000e+000 2.775558e-016 -1.531303e-032
      outer loop
         vertex -5.650122e-001 2.747561e-001 -6.212971e-002
         vertex -5.650122e-001 2.783215e-001 -8.768954e-002
         vertex -5.650122e-001 1.134065e-004 -3.928693e-001
      endloop
   endfacet
   facet normal -1.000000e+000 2.775558e-016 -1.531303e-032
      outer loop
         vertex -5.650122e-001 1.134065e-004 -3.928693e-001
         vertex -5.650122e-001 2.783215e-001 -8.768954e-002
         vertex -5.650122e-001 2.795134e-001 -1.134693e-001
      endloop
   endfacet
   facet normal -1.000000e+000 2.775558e-016 -1.531303e-032
      outer loop
         vertex -5.650122e-001 1.134065e-004 -3.928693e-001
         vertex -5.650122e-001 2.795134e-001 -1.134693e-001
         vertex -5.650122e-001 2.783215e-001 -1.392491e-001
      endloop
   endfacet
   facet normal -1.000000e+000 2.775558e-016 -1.531303e-032
      outer loop
         vertex -5.650122e-001 5.145302e-002 -3.881120e-001
         vertex -5.650122e-001 2.589319e-002 -3.916775e-001
         vertex -5.650122e-001 2.065925e-001 -3.016999e-001
      endloop
   endfacet
   facet normal -1.000000e+000 2.775558e-016 -1.531303e-032
      outer loop
         vertex -5.650122e-001 2.783215e-001 -1.392491e-001
         vertex -5.650122e-001 2.747561e-001 -1.648089e-001
         vertex -5.650122e-001 1.134065e-004 -3.928693e-001
      endloop
   endfacet
   facet normal -1.000000e+000 2.775558e-016 -1.531303e-032
      outer loop
         vertex -5.650122e-001 1.134065e-004 -3.928693e-001
         vertex -5.650122e-001 2.747561e-001 -1.648089e-001
         vertex -5.650122e-001 2.688475e-001 -1.899308e-001
      endloop
   endfacet
   facet normal -1.000000e+000 2.775558e-016 -1.531303e-032
      outer loop
         vertex -5.650122e-001 1.134065e-004 -3.928693e-001
         vertex -5.650122e-001 2.688475e-001 -1.899308e-001
         vertex -5.650122e-001 2.606461e-001 -2.144002e-001
      endloop
   endfacet
   facet normal -1.000000e+000 2.775558e-016 -1.531303e-032
      outer loop
         vertex -5.650122e-001 5.145302e-002 1.611734e-001
         vertex -5.650122e-001 7.657485e-002 1.552648e-001
         vertex -5.650122e-001 1.134065e-004 -3.928693e-001
      endloop
   endfacet
   facet normal -1.000000e+000 2.775558e-016 -1.531303e-032
      outer loop
         vertex -5.650122e-001 1.134065e-004 -3.928693e-001
         vertex -5.650122e-001 7.657485e-002 1.552648e-001
         vertex -5.650122e-001 1.010443e-001 1.470634e-001
      endloop
   endfacet
   facet normal -1.000000e+000 2.775558e-016 -1.531303e-032
      outer loop
         vertex -5.650122e-001 1.134065e-004 -3.928693e-001
         vertex -5.650122e-001 1.010443e-001 1.470634e-001
         vertex -5.650122e-001 1.246527e-001 1.366393e-001
      endloop
   endfacet
   facet normal -1.000000e+000 2.775558e-016 -1.531303e-032
      outer loop
         vertex -5.650122e-001 2.606461e-001 -2.144002e-001
         vertex -5.650122e-001 2.502220e-001 -2.380086e-001
         vertex -5.650122e-001 1.134065e-004 -3.928693e-001
      endloop
   endfacet
   facet normal -1.000000e+000 2.775558e-016 -1.531303e-032
      outer loop
         vertex -5.650122e-001 1.134065e-004 -3.928693e-001
         vertex -5.650122e-001 2.502220e-001 -2.380086e-001
         vertex -5.650122e-001 2.376641e-001 -2.605545e-001
      endloop
   endfacet
   facet normal -1.000000e+000 2.775558e-016 -1.531303e-032
      outer loop
         vertex -5.650122e-001 1.134065e-004 -3.928693e-001
         vertex -5.650122e-001 2.376641e-001 -2.605545e-001
         vertex -5.650122e-001 2.589319e-002 -3.916775e-001
      endloop
   endfacet
   facet normal -1.000000e+000 2.775558e-016 -1.531303e-032
      outer loop
         vertex -5.650122e-001 2.589319e-002 -3.916775e-001
         vertex -5.650122e-001 2.376641e-001 -2.605545e-001
         vertex -5.650122e-001 2.230794e-001 -2.818455e-001
      endloop
   endfacet
   facet normal -1.000000e+000 2.775558e-016 -1.531303e-032
      outer loop
         vertex -5.650122e-001 2.589319e-002 -3.916775e-001
         vertex -5.650122e-001 2.230794e-001 -2.818455e-001
         vertex -5.650122e-001 2.065925e-001 -3.016999e-001
      endloop
   endfacet
   facet normal -1.000000e+000 2.775558e-016 -1.531303e-032
      outer loop
         vertex -5.650122e-001 1.246527e-001 1.366393e-001
         vertex -5.650122e-001 1.471986e-001 1.240813e-001
         vertex -5.650122e-001 1.134065e-004 -3.928693e-001
      endloop
   endfacet
   facet normal -1.000000e+000 2.775558e-016 -1.531303e-032
      outer loop
         vertex -5.650122e-001 1.134065e-004 -3.928693e-001
         vertex -5.650122e-001 1.471986e-001 1.240813e-001
         vertex -5.650122e-001 1.684895e-001 1.094967e-001
      endloop
   endfacet
   facet normal -1.000000e+000 2.775558e-016 -1.531303e-032
      outer loop
         vertex -5.650122e-001 1.134065e-004 -3.928693e-001
         vertex -5.650122e-001 1.684895e-001 1.094967e-001
         vertex -5.650122e-001 1.883440e-001 9.300977e-002
      endloop
   endfacet
   facet normal -1.000000e+000 2.775558e-016 -1.531303e-032
      outer loop
         vertex -5.650122e-001 1.883440e-001 9.300977e-002
         vertex -5.650122e-001 2.065925e-001 7.476124e-002
         vertex -5.650122e-001 1.134065e-004 -3.928693e-001
      endloop
   endfacet
   facet normal -1.000000e+000 2.775558e-016 -1.531303e-032
      outer loop
         vertex -5.650122e-001 1.134065e-004 -3.928693e-001
         vertex -5.650122e-001 2.065925e-001 7.476124e-002
         vertex -5.650122e-001 2.230794e-001 5.490680e-002
      endloop
   endfacet
   facet normal -1.000000e+000 2.775558e-016 -1.531303e-032
      outer loop
         vertex -5.650122e-001 1.134065e-004 -3.928693e-001
         vertex -5.650122e-001 2.230794e-001 5.490680e-002
         vertex -5.650122e-001 2.376641e-001 3.361582e-002
      endloop
   endfacet
   facet normal -1.000000e+000 2.775558e-016 -1.531303e-032
      outer loop
         vertex -5.650122e-001 2.376641e-001 3.361582e-002
         vertex -5.650122e-001 2.502220e-001 1.106997e-002
         vertex -5.650122e-001 1.134065e-004 -3.928693e-001
      endloop
   endfacet
   facet normal -1.000000e+000 2.775558e-016 -1.531303e-032
      outer loop
         vertex -5.650122e-001 1.134065e-004 -3.928693e-001
         vertex -5.650122e-001 2.502220e-001 1.106997e-002
         vertex -5.650122e-001 2.606461e-001 -1.253840e-002
      endloop
   endfacet
   facet normal -1.000000e+000 2.775558e-016 -1.531303e-032
      outer loop
         vertex -5.650122e-001 1.134065e-004 -3.928693e-001
         vertex -5.650122e-001 2.606461e-001 -1.253840e-002
         vertex -5.650122e-001 2.688475e-001 -3.700788e-002
      endloop
   endfacet
   facet normal -1.000000e+000 2.775558e-016 -1.531303e-032
      outer loop
         vertex -5.650122e-001 5.145302e-002 -3.881120e-001
         vertex -5.650122e-001 2.065925e-001 -3.016999e-001
         vertex -5.650122e-001 7.657485e-002 -3.822034e-001
      endloop
   endfacet
   facet normal -1.000000e+000 2.775558e-016 -1.531303e-032
      outer loop
         vertex -5.650122e-001 7.657485e-002 -3.822034e-001
         vertex -5.650122e-001 2.065925e-001 -3.016999e-001
         vertex -5.650122e-001 1.883440e-001 -3.199484e-001
      endloop
   endfacet
   facet normal -1.000000e+000 2.775558e-016 -1.531303e-032
      outer loop
         vertex -5.650122e-001 7.657485e-002 -3.822034e-001
         vertex -5.650122e-001 1.883440e-001 -3.199484e-001
         vertex -5.650122e-001 1.684895e-001 -3.364353e-001
      endloop
   endfacet
   facet normal -1.000000e+000 2.775558e-016 -1.531303e-032
      outer loop
         vertex -5.650122e-001 1.684895e-001 -3.364353e-001
         vertex -5.650122e-001 1.471986e-001 -3.510200e-001
         vertex -5.650122e-001 7.657485e-002 -3.822034e-001
      endloop
   endfacet
   facet normal -1.000000e+000 2.775558e-016 -1.531303e-032
      outer loop
         vertex -5.650122e-001 7.657485e-002 -3.822034e-001
         vertex -5.650122e-001 1.471986e-001 -3.510200e-001
         vertex -5.650122e-001 1.246527e-001 -3.635780e-001
      endloop
   endfacet
   facet normal -1.000000e+000 2.775558e-016 -1.531303e-032
      outer loop
         vertex -5.650122e-001 7.657485e-002 -3.822034e-001
         vertex -5.650122e-001 1.246527e-001 -3.635780e-001
         vertex -5.650122e-001 1.010443e-001 -3.740021e-001
      endloop
   endfacet
   facet normal 1.000000e+000 -2.775558e-016 1.531303e-032
      outer loop
         vertex -5.600122e-001 7.657485e-002 1.552648e-001
         vertex -5.600122e-001 5.145302e-002 1.611734e-001
         vertex -5.600122e-001 1.134065e-004 -3.928693e-001
      endloop
   endfacet
   facet normal 1.000000e+000 -2.775558e-016 1.531303e-032
      outer loop
         vertex -5.600122e-001 1.134065e-004 -3.928693e-001
         vertex -5.600122e-001 5.145302e-002 1.611734e-001
         vertex -5.600122e-001 2.589319e-002 1.647388e-001
      endloop
   endfacet
   facet normal 1.000000e+000 -2.775558e-016 1.531303e-032
      outer loop
         vertex -5.600122e-001 1.134065e-004 -3.928693e-001
         vertex -5.600122e-001 2.589319e-002 1.647388e-001
         vertex -5.600122e-001 1.134065e-004 1.659307e-001
      endloop
   endfacet
   facet normal 1.000000e+000 -2.775558e-016 1.531303e-032
      outer loop
         vertex -5.600122e-001 1.883440e-001 -3.199484e-001
         vertex -5.600122e-001 2.065925e-001 -3.016999e-001
         vertex -5.600122e-001 7.657485e-002 -3.822034e-001
      endloop
   endfacet
   facet normal 1.000000e+000 -2.775558e-016 1.531303e-032
      outer loop
         vertex -5.600122e-001 2.606461e-001 -2.144002e-001
         vertex -5.600122e-001 2.688475e-001 -1.899308e-001
         vertex -5.600122e-001 2.589319e-002 -3.916775e-001
      endloop
   endfacet
   facet normal 1.000000e+000 -2.775558e-016 1.531303e-032
      outer loop
         vertex -5.600122e-001 1.010443e-001 -3.740021e-001
         vertex -5.600122e-001 1.246527e-001 -3.635780e-001
         vertex -5.600122e-001 1.471986e-001 -3.510200e-001
      endloop
   endfacet
   facet normal 1.000000e+000 -2.775558e-016 1.531303e-032
      outer loop
         vertex -5.600122e-001 2.065925e-001 -3.016999e-001
         vertex -5.600122e-001 2.230794e-001 -2.818455e-001
         vertex -5.600122e-001 7.657485e-002 -3.822034e-001
      endloop
   endfacet
   facet normal 1.000000e+000 -2.775558e-016 1.531303e-032
      outer loop
         vertex -5.600122e-001 7.657485e-002 -3.822034e-001
         vertex -5.600122e-001 2.230794e-001 -2.818455e-001
         vertex -5.600122e-001 2.376641e-001 -2.605545e-001
      endloop
   endfacet
   facet normal 1.000000e+000 -2.775558e-016 1.531303e-032
      outer loop
         vertex -5.600122e-001 7.657485e-002 -3.822034e-001
         vertex -5.600122e-001 2.376641e-001 -2.605545e-001
         vertex -5.600122e-001 5.145302e-002 -3.881120e-001
      endloop
   endfacet
   facet normal 1.000000e+000 -2.775558e-016 1.531303e-032
      outer loop
         vertex -5.600122e-001 2.688475e-001 -1.899308e-001
         vertex -5.600122e-001 2.747561e-001 -1.648089e-001
         vertex -5.600122e-001 2.589319e-002 -3.916775e-001
      endloop
   endfacet
   facet normal 1.000000e+000 -2.775558e-016 1.531303e-032
      outer loop
         vertex -5.600122e-001 2.589319e-002 -3.916775e-001
         vertex -5.600122e-001 2.747561e-001 -1.648089e-001
         vertex -5.600122e-001 2.783215e-001 -1.392491e-001
      endloop
   endfacet
   facet normal 1.000000e+000 -2.775558e-016 1.531303e-032
      outer loop
         vertex -5.600122e-001 2.589319e-002 -3.916775e-001
         vertex -5.600122e-001 2.783215e-001 -1.392491e-001
         vertex -5.600122e-001 2.795134e-001 -1.134693e-001
      endloop
   endfacet
   facet normal 1.000000e+000 -2.775558e-016 1.531303e-032
      outer loop
         vertex -5.600122e-001 2.795134e-001 -1.134693e-001
         vertex -5.600122e-001 2.783215e-001 -8.768954e-002
         vertex -5.600122e-001 2.589319e-002 -3.916775e-001
      endloop
   endfacet
   facet normal 1.000000e+000 -2.775558e-016 1.531303e-032
      outer loop
         vertex -5.600122e-001 2.589319e-002 -3.916775e-001
         vertex -5.600122e-001 2.783215e-001 -8.768954e-002
         vertex -5.600122e-001 2.747561e-001 -6.212971e-002
      endloop
   endfacet
   facet normal 1.000000e+000 -2.775558e-016 1.531303e-032
      outer loop
         vertex -5.600122e-001 2.589319e-002 -3.916775e-001
         vertex -5.600122e-001 2.747561e-001 -6.212971e-002
         vertex -5.600122e-001 1.134065e-004 -3.928693e-001
      endloop
   endfacet
   facet normal 1.000000e+000 -2.775558e-016 1.531303e-032
      outer loop
         vertex -5.600122e-001 2.747561e-001 -6.212971e-002
         vertex -5.600122e-001 2.688475e-001 -3.700788e-002
         vertex -5.600122e-001 1.134065e-004 -3.928693e-001
      endloop
   endfacet
   facet normal 1.000000e+000 -2.775558e-016 1.531303e-032
      outer loop
         vertex -5.600122e-001 1.134065e-004 -3.928693e-001
         vertex -5.600122e-001 2.688475e-001 -3.700788e-002
         vertex -5.600122e-001 2.606461e-001 -1.253840e-002
      endloop
   endfacet
   facet normal 1.000000e+000 -2.775558e-016 1.531303e-032
      outer loop
         vertex -5.600122e-001 1.134065e-004 -3.928693e-001
         vertex -5.600122e-001 2.606461e-001 -1.253840e-002
         vertex -5.600122e-001 2.502220e-001 1.106997e-002
      endloop
   endfacet
   facet normal 1.000000e+000 -2.775558e-016 1.531303e-032
      outer loop
         vertex -5.600122e-001 2.502220e-001 1.106997e-002
         vertex -5.600122e-001 2.376641e-001 3.361582e-002
         vertex -5.600122e-001 1.134065e-004 -3.928693e-001
      endloop
   endfacet
   facet normal 1.000000e+000 -2.775558e-016 1.531303e-032
      outer loop
         vertex -5.600122e-001 1.134065e-004 -3.928693e-001
         vertex -5.600122e-001 2.376641e-001 3.361582e-002
         vertex -5.600122e-001 2.230794e-001 5.490680e-002
      endloop
   endfacet
   facet normal 1.000000e+000 -2.775558e-016 1.531303e-032
      outer loop
         vertex -5.600122e-001 1.134065e-004 -3.928693e-001
         vertex -5.600122e-001 2.230794e-001 5.490680e-002
         vertex -5.600122e-001 2.065925e-001 7.476124e-002
      endloop
   endfacet
   facet normal 1.000000e+000 -2.775558e-016 1.531303e-032
      outer loop
         vertex -5.600122e-001 5.145302e-002 -3.881120e-001
         vertex -5.600122e-001 2.376641e-001 -2.605545e-001
         vertex -5.600122e-001 2.589319e-002 -3.916775e-001
      endloop
   endfacet
   facet normal 1.000000e+000 -2.775558e-016 1.531303e-032
      outer loop
         vertex -5.600122e-001 2.589319e-002 -3.916775e-001
         vertex -5.600122e-001 2.376641e-001 -2.605545e-001
         vertex -5.600122e-001 2.502220e-001 -2.380086e-001
      endloop
   endfacet
   facet normal 1.000000e+000 -2.775558e-016 1.531303e-032
      outer loop
         vertex -5.600122e-001 2.589319e-002 -3.916775e-001
         vertex -5.600122e-001 2.502220e-001 -2.380086e-001
         vertex -5.600122e-001 2.606461e-001 -2.144002e-001
      endloop
   endfacet
   facet normal 1.000000e+000 -2.775558e-016 1.531303e-032
      outer loop
         vertex -5.600122e-001 1.471986e-001 1.240813e-001
         vertex -5.600122e-001 1.246527e-001 1.366393e-001
         vertex -5.600122e-001 1.134065e-004 -3.928693e-001
      endloop
   endfacet
   facet normal 1.000000e+000 -2.775558e-016 1.531303e-032
      outer loop
         vertex -5.600122e-001 1.134065e-004 -3.928693e-001
         vertex -5.600122e-001 1.246527e-001 1.366393e-001
         vertex -5.600122e-001 1.010443e-001 1.470634e-001
      endloop
   endfacet
   facet normal 1.000000e+000 -2.775558e-016 1.531303e-032
      outer loop
         vertex -5.600122e-001 1.134065e-004 -3.928693e-001
         vertex -5.600122e-001 1.010443e-001 1.470634e-001
         vertex -5.600122e-001 7.657485e-002 1.552648e-001
      endloop
   endfacet
   facet normal 1.000000e+000 -2.775558e-016 1.531303e-032
      outer loop
         vertex -5.600122e-001 1.010443e-001 -3.740021e-001
         vertex -5.600122e-001 1.471986e-001 -3.510200e-001
         vertex -5.600122e-001 7.657485e-002 -3.822034e-001
      endloop
   endfacet
   facet normal 1.000000e+000 -2.775558e-016 1.531303e-032
      outer loop
         vertex -5.600122e-001 7.657485e-002 -3.822034e-001
         vertex -5.600122e-001 1.471986e-001 -3.510200e-001
         vertex -5.600122e-001 1.684895e-001 -3.364353e-001
      endloop
   endfacet
   facet normal 1.000000e+000 -2.775558e-016 1.531303e-032
      outer loop
         vertex -5.600122e-001 7.657485e-002 -3.822034e-001
         vertex -5.600122e-001 1.684895e-001 -3.364353e-001
         vertex -5.600122e-001 1.883440e-001 -3.199484e-001
      endloop
   endfacet
   facet normal 1.000000e+000 -2.775558e-016 1.531303e-032
      outer loop
         vertex -5.600122e-001 2.065925e-001 7.476124e-002
         vertex -5.600122e-001 1.883440e-001 9.300977e-002
         vertex -5.600122e-001 1.134065e-004 -3.928693e-001
      endloop
   endfacet
   facet normal 1.000000e+000 -2.775558e-016 1.531303e-032
      outer loop
         vertex -5.600122e-001 1.134065e-004 -3.928693e-001
         vertex -5.600122e-001 1.883440e-001 9.300977e-002
         vertex -5.600122e-001 1.684895e-001 1.094967e-001
      endloop
   endfacet
   facet normal 1.000000e+000 -2.775558e-016 1.531303e-032
      outer loop
         vertex -5.600122e-001 1.134065e-004 -3.928693e-001
         vertex -5.600122e-001 1.684895e-001 1.094967e-001
         vertex -5.600122e-001 1.471986e-001 1.240813e-001
      endloop
   endfacet
endsolid