solid NEMO4-perpendicularProp - DLA64-3
   facet normal -1.965221e-030 -6.970113e-015 -1.000000e+000
      outer loop
         vertex -5.000122e-001 1.881526e-009 -1.564496e-001
         vertex -5.000122e-001 1.282134e-001 -1.564496e-001
         vertex -3.920122e-001 1.881526e-009 -1.564496e-001
      endloop
   endfacet
   facet normal -1.965221e-030 -6.970113e-015 -1.000000e+000
      outer loop
         vertex -3.920122e-001 1.881526e-009 -1.564496e-001
         vertex -5.000122e-001 1.282134e-001 -1.564496e-001
         vertex -3.920122e-001 1.282134e-001 -1.564496e-001
      endloop
   endfacet
   facet normal 1.000000e+000 -2.775558e-016 1.531303e-032
      outer loop
         vertex -3.920122e-001 8.321340e-002 -3.048900e-002
         vertex -3.920122e-001 1.881527e-009 -3.048900e-002
         vertex -3.920122e-001 8.321340e-002 -7.048901e-002
      endloop
   endfacet
   facet normal 1.000000e+000 -2.775558e-016 1.531303e-032
      outer loop
         vertex -3.920122e-001 8.321340e-002 -7.048901e-002
         vertex -3.920122e-001 1.881527e-009 -3.048900e-002
         vertex -3.920122e-001 1.881526e-009 -1.564496e-001
      endloop
   endfacet
   facet normal 1.000000e+000 -2.775558e-016 1.531303e-032
      outer loop
         vertex -3.920122e-001 8.321340e-002 -7.048901e-002
         vertex -3.920122e-001 1.881526e-009 -1.564496e-001
         vertex -3.920122e-001 1.282134e-001 -7.048901e-002
      endloop
   endfacet
   facet normal 1.000000e+000 -2.775558e-016 1.531303e-032
      outer loop
         vertex -3.920122e-001 1.282134e-001 -7.048901e-002
         vertex -3.920122e-001 1.881526e-009 -1.564496e-001
         vertex -3.920122e-001 1.282134e-001 -1.564496e-001
      endloop
   endfacet
   facet normal -1.000000e+000 4.510281e-016 2.832749e-016
      outer loop
         vertex -5.000122e-001 6.269956e-003 -7.394595e-002
         vertex -5.000122e-001 1.881527e-009 -7.346948e-002
         vertex -5.000122e-001 1.881527e-009 -3.048900e-002
      endloop
   endfacet
   facet normal -1.000000e+000 4.510281e-016 2.832749e-016
      outer loop
         vertex -5.000122e-001 8.321340e-002 -7.048901e-002
         vertex -5.000122e-001 4.011341e-002 -1.134693e-001
         vertex -5.000122e-001 3.961917e-002 -1.072007e-001
      endloop
   endfacet
   facet normal -1.000000e+000 4.510281e-016 2.832749e-016
      outer loop
         vertex -5.000122e-001 1.238777e-002 -1.515395e-001
         vertex -5.000122e-001 1.820226e-002 -1.491456e-001
         vertex -5.000122e-001 1.282134e-001 -1.564496e-001
      endloop
   endfacet
   facet normal -1.000000e+000 4.510281e-016 2.832749e-016
      outer loop
         vertex -5.000122e-001 1.282134e-001 -1.564496e-001
         vertex -5.000122e-001 1.820226e-002 -1.491456e-001
         vertex -5.000122e-001 2.356973e-002 -1.458700e-001
      endloop
   endfacet
   facet normal -1.000000e+000 4.510281e-016 2.832749e-016
      outer loop
         vertex -5.000122e-001 1.282134e-001 -1.564496e-001
         vertex -5.000122e-001 2.356973e-002 -1.458700e-001
         vertex -5.000122e-001 2.835755e-002 -1.417937e-001
      endloop
   endfacet
   facet normal -1.000000e+000 4.510281e-016 2.832749e-016
      outer loop
         vertex -5.000122e-001 2.835755e-002 -1.417937e-001
         vertex -5.000122e-001 3.244740e-002 -1.370174e-001
         vertex -5.000122e-001 1.282134e-001 -1.564496e-001
      endloop
   endfacet
   facet normal -1.000000e+000 4.510281e-016 2.832749e-016
      outer loop
         vertex -5.000122e-001 1.282134e-001 -1.564496e-001
         vertex -5.000122e-001 3.244740e-002 -1.370174e-001
         vertex -5.000122e-001 3.573821e-002 -1.316592e-001
      endloop
   endfacet
   facet normal -1.000000e+000 4.510281e-016 2.832749e-016
      outer loop
         vertex -5.000122e-001 1.282134e-001 -1.564496e-001
         vertex -5.000122e-001 3.573821e-002 -1.316592e-001
         vertex -5.000122e-001 3.814865e-002 -1.258516e-001
      endloop
   endfacet
   facet normal -1.000000e+000 4.510281e-016 2.832749e-016
      outer loop
         vertex -5.000122e-001 3.961917e-002 -1.072007e-001
         vertex -5.000122e-001 3.814865e-002 -1.010871e-001
         vertex -5.000122e-001 8.321340e-002 -7.048901e-002
      endloop
   endfacet
   facet normal -1.000000e+000 4.510281e-016 2.832749e-016
      outer loop
         vertex -5.000122e-001 8.321340e-002 -7.048901e-002
         vertex -5.000122e-001 3.814865e-002 -1.010871e-001
         vertex -5.000122e-001 3.573821e-002 -9.527940e-002
      endloop
   endfacet
   facet normal -1.000000e+000 4.510281e-016 2.832749e-016
      outer loop
         vertex -5.000122e-001 8.321340e-002 -7.048901e-002
         vertex -5.000122e-001 3.573821e-002 -9.527940e-002
         vertex -5.000122e-001 8.321340e-002 -3.048900e-002
      endloop
   endfacet
   facet normal -1.000000e+000 4.510281e-016 2.832749e-016
      outer loop
         vertex -5.000122e-001 8.321340e-002 -3.048900e-002
         vertex -5.000122e-001 3.573821e-002 -9.527940e-002
         vertex -5.000122e-001 3.244740e-002 -8.992123e-002
      endloop
   endfacet
   facet normal -1.000000e+000 4.510281e-016 2.832749e-016
      outer loop
         vertex -5.000122e-001 8.321340e-002 -3.048900e-002
         vertex -5.000122e-001 3.244740e-002 -8.992123e-002
         vertex -5.000122e-001 2.835755e-002 -8.514498e-002
      endloop
   endfacet
   facet normal -1.000000e+000 4.510281e-016 2.832749e-016
      outer loop
         vertex -5.000122e-001 1.238777e-002 -1.515395e-001
         vertex -5.000122e-001 1.282134e-001 -1.564496e-001
         vertex -5.000122e-001 6.269956e-003 -1.529927e-001
      endloop
   endfacet
   facet normal -1.000000e+000 4.510281e-016 2.832749e-016
      outer loop
         vertex -5.000122e-001 6.269956e-003 -1.529927e-001
         vertex -5.000122e-001 1.282134e-001 -1.564496e-001
         vertex -5.000122e-001 1.881526e-009 -1.564496e-001
      endloop
   endfacet
   facet normal -1.000000e+000 4.510281e-016 2.832749e-016
      outer loop
         vertex -5.000122e-001 6.269956e-003 -1.529927e-001
         vertex -5.000122e-001 1.881526e-009 -1.564496e-001
         vertex -5.000122e-001 1.881526e-009 -1.534692e-001
      endloop
   endfacet
   facet normal -1.000000e+000 4.510281e-016 2.832749e-016
      outer loop
         vertex -5.000122e-001 8.321340e-002 -7.048901e-002
         vertex -5.000122e-001 1.282134e-001 -7.048901e-002
         vertex -5.000122e-001 4.011341e-002 -1.134693e-001
      endloop
   endfacet
   facet normal -1.000000e+000 4.510281e-016 2.832749e-016
      outer loop
         vertex -5.000122e-001 4.011341e-002 -1.134693e-001
         vertex -5.000122e-001 1.282134e-001 -7.048901e-002
         vertex -5.000122e-001 1.282134e-001 -1.564496e-001
      endloop
   endfacet
   facet normal -1.000000e+000 4.510281e-016 2.832749e-016
      outer loop
         vertex -5.000122e-001 4.011341e-002 -1.134693e-001
         vertex -5.000122e-001 1.282134e-001 -1.564496e-001
         vertex -5.000122e-001 3.961917e-002 -1.197379e-001
      endloop
   endfacet
   facet normal -1.000000e+000 4.510281e-016 2.832749e-016
      outer loop
         vertex -5.000122e-001 3.961917e-002 -1.197379e-001
         vertex -5.000122e-001 1.282134e-001 -1.564496e-001
         vertex -5.000122e-001 3.814865e-002 -1.258516e-001
      endloop
   endfacet
   facet normal -1.000000e+000 4.510281e-016 2.832749e-016
      outer loop
         vertex -5.000122e-001 2.835755e-002 -8.514498e-002
         vertex -5.000122e-001 2.356973e-002 -8.106869e-002
         vertex -5.000122e-001 8.321340e-002 -3.048900e-002
      endloop
   endfacet
   facet normal -1.000000e+000 4.510281e-016 2.832749e-016
      outer loop
         vertex -5.000122e-001 8.321340e-002 -3.048900e-002
         vertex -5.000122e-001 2.356973e-002 -8.106869e-002
         vertex -5.000122e-001 1.820226e-002 -7.779309e-002
      endloop
   endfacet
   facet normal -1.000000e+000 4.510281e-016 2.832749e-016
      outer loop
         vertex -5.000122e-001 8.321340e-002 -3.048900e-002
         vertex -5.000122e-001 1.820226e-002 -7.779309e-002
         vertex -5.000122e-001 1.881527e-009 -3.048900e-002
      endloop
   endfacet
   facet normal -1.000000e+000 4.510281e-016 2.832749e-016
      outer loop
         vertex -5.000122e-001 1.881527e-009 -3.048900e-002
         vertex -5.000122e-001 1.820226e-002 -7.779309e-002
         vertex -5.000122e-001 1.238777e-002 -7.539912e-002
      endloop
   endfacet
   facet normal -1.000000e+000 4.510281e-016 2.832749e-016
      outer loop
         vertex -5.000122e-001 1.881527e-009 -3.048900e-002
         vertex -5.000122e-001 1.238777e-002 -7.539912e-002
         vertex -5.000122e-001 6.269956e-003 -7.394595e-002
      endloop
   endfacet
   facet normal 1.956482e-030 6.938627e-015 1.000000e+000
      outer loop
         vertex -5.000122e-001 8.321340e-002 -3.048900e-002
         vertex -4.186504e-001 6.591173e-002 -3.048900e-002
         vertex -4.182084e-001 6.685960e-002 -3.048900e-002
      endloop
   endfacet
   facet normal 1.956482e-030 6.938627e-015 1.000000e+000
      outer loop
         vertex -4.119703e-001 6.976845e-002 -3.048900e-002
         vertex -4.109601e-001 6.949776e-002 -3.048900e-002
         vertex -3.920122e-001 8.321340e-002 -3.048900e-002
      endloop
   endfacet
   facet normal 1.956482e-030 6.938627e-015 1.000000e+000
      outer loop
         vertex -3.920122e-001 8.321340e-002 -3.048900e-002
         vertex -4.109601e-001 6.949776e-002 -3.048900e-002
         vertex -4.100122e-001 6.905576e-002 -3.048900e-002
      endloop
   endfacet
   facet normal 1.956482e-030 6.938627e-015 1.000000e+000
      outer loop
         vertex -4.078161e-001 6.685960e-002 -3.048900e-002
         vertex -4.073741e-001 6.591173e-002 -3.048900e-002
         vertex -3.920122e-001 8.321340e-002 -3.048900e-002
      endloop
   endfacet
   facet normal 1.956482e-030 6.938627e-015 1.000000e+000
      outer loop
         vertex -3.920122e-001 8.321340e-002 -3.048900e-002
         vertex -4.073741e-001 6.591173e-002 -3.048900e-002
         vertex -4.071034e-001 6.490149e-002 -3.048900e-002
      endloop
   endfacet
   facet normal 1.956482e-030 6.938627e-015 1.000000e+000
      outer loop
         vertex -4.182084e-001 6.685960e-002 -3.048900e-002
         vertex -4.176085e-001 6.771633e-002 -3.048900e-002
         vertex -5.000122e-001 8.321340e-002 -3.048900e-002
      endloop
   endfacet
   facet normal 1.956482e-030 6.938627e-015 1.000000e+000
      outer loop
         vertex -5.000122e-001 8.321340e-002 -3.048900e-002
         vertex -4.176085e-001 6.771633e-002 -3.048900e-002
         vertex -4.168689e-001 6.845587e-002 -3.048900e-002
      endloop
   endfacet
   facet normal 1.956482e-030 6.938627e-015 1.000000e+000
      outer loop
         vertex -5.000122e-001 8.321340e-002 -3.048900e-002
         vertex -4.168689e-001 6.845587e-002 -3.048900e-002
         vertex -4.160122e-001 6.905576e-002 -3.048900e-002
      endloop
   endfacet
   facet normal 1.956482e-030 6.938627e-015 1.000000e+000
      outer loop
         vertex -4.100122e-001 6.905576e-002 -3.048900e-002
         vertex -4.091555e-001 6.845587e-002 -3.048900e-002
         vertex -3.920122e-001 8.321340e-002 -3.048900e-002
      endloop
   endfacet
   facet normal 1.956482e-030 6.938627e-015 1.000000e+000
      outer loop
         vertex -3.920122e-001 8.321340e-002 -3.048900e-002
         vertex -4.091555e-001 6.845587e-002 -3.048900e-002
         vertex -4.084159e-001 6.771633e-002 -3.048900e-002
      endloop
   endfacet
   facet normal 1.956482e-030 6.938627e-015 1.000000e+000
      outer loop
         vertex -3.920122e-001 8.321340e-002 -3.048900e-002
         vertex -4.084159e-001 6.771633e-002 -3.048900e-002
         vertex -4.078161e-001 6.685960e-002 -3.048900e-002
      endloop
   endfacet
   facet normal 1.956482e-030 6.938627e-015 1.000000e+000
      outer loop
         vertex -4.071034e-001 6.490149e-002 -3.048900e-002
         vertex -4.070122e-001 6.385960e-002 -3.048900e-002
         vertex -3.920122e-001 8.321340e-002 -3.048900e-002
      endloop
   endfacet
   facet normal 1.956482e-030 6.938627e-015 1.000000e+000
      outer loop
         vertex -3.920122e-001 8.321340e-002 -3.048900e-002
         vertex -4.070122e-001 6.385960e-002 -3.048900e-002
         vertex -4.071034e-001 6.281772e-002 -3.048900e-002
      endloop
   endfacet
   facet normal 1.956482e-030 6.938627e-015 1.000000e+000
      outer loop
         vertex -3.920122e-001 8.321340e-002 -3.048900e-002
         vertex -4.071034e-001 6.281772e-002 -3.048900e-002
         vertex -3.920122e-001 1.881527e-009 -3.048900e-002
      endloop
   endfacet
   facet normal 1.956482e-030 6.938627e-015 1.000000e+000
      outer loop
         vertex -3.920122e-001 1.881527e-009 -3.048900e-002
         vertex -4.071034e-001 6.281772e-002 -3.048900e-002
         vertex -4.073741e-001 6.180748e-002 -3.048900e-002
      endloop
   endfacet
   facet normal 1.956482e-030 6.938627e-015 1.000000e+000
      outer loop
         vertex -3.920122e-001 1.881527e-009 -3.048900e-002
         vertex -4.073741e-001 6.180748e-002 -3.048900e-002
         vertex -4.078161e-001 6.085960e-002 -3.048900e-002
      endloop
   endfacet
   facet normal 1.956482e-030 6.938627e-015 1.000000e+000
      outer loop
         vertex -5.000122e-001 1.881527e-009 -3.048900e-002
         vertex -4.870200e-001 1.881527e-009 -3.048900e-002
         vertex -4.864423e-001 6.040180e-003 -3.048900e-002
      endloop
   endfacet
   facet normal 1.956482e-030 6.938627e-015 1.000000e+000
      outer loop
         vertex -4.078161e-001 6.085960e-002 -3.048900e-002
         vertex -4.084159e-001 6.000288e-002 -3.048900e-002
         vertex -3.920122e-001 1.881527e-009 -3.048900e-002
      endloop
   endfacet
   facet normal 1.956482e-030 6.938627e-015 1.000000e+000
      outer loop
         vertex -3.920122e-001 1.881527e-009 -3.048900e-002
         vertex -4.084159e-001 6.000288e-002 -3.048900e-002
         vertex -4.091555e-001 5.926334e-002 -3.048900e-002
      endloop
   endfacet
   facet normal 1.956482e-030 6.938627e-015 1.000000e+000
      outer loop
         vertex -3.920122e-001 1.881527e-009 -3.048900e-002
         vertex -4.091555e-001 5.926334e-002 -3.048900e-002
         vertex -4.100122e-001 5.866345e-002 -3.048900e-002
      endloop
   endfacet
   facet normal 1.956482e-030 6.938627e-015 1.000000e+000
      outer loop
         vertex -5.000122e-001 1.881527e-009 -3.048900e-002
         vertex -4.864423e-001 6.040180e-003 -3.048900e-002
         vertex -5.000122e-001 8.321340e-002 -3.048900e-002
      endloop
   endfacet
   facet normal 1.956482e-030 6.938627e-015 1.000000e+000
      outer loop
         vertex -5.000122e-001 8.321340e-002 -3.048900e-002
         vertex -4.864423e-001 6.040180e-003 -3.048900e-002
         vertex -4.848301e-001 1.188982e-002 -3.048900e-002
      endloop
   endfacet
   facet normal 1.956482e-030 6.938627e-015 1.000000e+000
      outer loop
         vertex -5.000122e-001 8.321340e-002 -3.048900e-002
         vertex -4.848301e-001 1.188982e-002 -3.048900e-002
         vertex -4.822319e-001 1.737311e-002 -3.048900e-002
      endloop
   endfacet
   facet normal 1.956482e-030 6.938627e-015 1.000000e+000
      outer loop
         vertex -4.160122e-001 6.905576e-002 -3.048900e-002
         vertex -4.150643e-001 6.949776e-002 -3.048900e-002
         vertex -5.000122e-001 8.321340e-002 -3.048900e-002
      endloop
   endfacet
   facet normal 1.956482e-030 6.938627e-015 1.000000e+000
      outer loop
         vertex -5.000122e-001 8.321340e-002 -3.048900e-002
         vertex -4.150643e-001 6.949776e-002 -3.048900e-002
         vertex -4.140541e-001 6.976845e-002 -3.048900e-002
      endloop
   endfacet
   facet normal 1.956482e-030 6.938627e-015 1.000000e+000
      outer loop
         vertex -5.000122e-001 8.321340e-002 -3.048900e-002
         vertex -4.140541e-001 6.976845e-002 -3.048900e-002
         vertex -3.920122e-001 8.321340e-002 -3.048900e-002
      endloop
   endfacet
   facet normal 1.956482e-030 6.938627e-015 1.000000e+000
      outer loop
         vertex -3.920122e-001 8.321340e-002 -3.048900e-002
         vertex -4.140541e-001 6.976845e-002 -3.048900e-002
         vertex -4.130122e-001 6.985960e-002 -3.048900e-002
      endloop
   endfacet
   facet normal 1.956482e-030 6.938627e-015 1.000000e+000
      outer loop
         vertex -3.920122e-001 8.321340e-002 -3.048900e-002
         vertex -4.130122e-001 6.985960e-002 -3.048900e-002
         vertex -4.119703e-001 6.976845e-002 -3.048900e-002
      endloop
   endfacet
   facet normal 1.956482e-030 6.938627e-015 1.000000e+000
      outer loop
         vertex -4.186504e-001 6.180748e-002 -3.048900e-002
         vertex -4.694348e-001 3.006114e-002 -3.048900e-002
         vertex -4.182084e-001 6.085960e-002 -3.048900e-002
      endloop
   endfacet
   facet normal 1.956482e-030 6.938627e-015 1.000000e+000
      outer loop
         vertex -4.182084e-001 6.085960e-002 -3.048900e-002
         vertex -4.694348e-001 3.006114e-002 -3.048900e-002
         vertex -4.639294e-001 3.261239e-002 -3.048900e-002
      endloop
   endfacet
   facet normal 1.956482e-030 6.938627e-015 1.000000e+000
      outer loop
         vertex -4.822319e-001 1.737311e-002 -3.048900e-002
         vertex -4.787256e-001 2.232524e-002 -3.048900e-002
         vertex -5.000122e-001 8.321340e-002 -3.048900e-002
      endloop
   endfacet
   facet normal 1.956482e-030 6.938627e-015 1.000000e+000
      outer loop
         vertex -5.000122e-001 8.321340e-002 -3.048900e-002
         vertex -4.787256e-001 2.232524e-002 -3.048900e-002
         vertex -4.744167e-001 2.659738e-002 -3.048900e-002
      endloop
   endfacet
   facet normal 1.956482e-030 6.938627e-015 1.000000e+000
      outer loop
         vertex -5.000122e-001 8.321340e-002 -3.048900e-002
         vertex -4.744167e-001 2.659738e-002 -3.048900e-002
         vertex -4.694348e-001 3.006114e-002 -3.048900e-002
      endloop
   endfacet
   facet normal 1.956482e-030 6.938627e-015 1.000000e+000
      outer loop
         vertex -4.186504e-001 6.180748e-002 -3.048900e-002
         vertex -4.189211e-001 6.281772e-002 -3.048900e-002
         vertex -4.694348e-001 3.006114e-002 -3.048900e-002
      endloop
   endfacet
   facet normal 1.956482e-030 6.938627e-015 1.000000e+000
      outer loop
         vertex -4.694348e-001 3.006114e-002 -3.048900e-002
         vertex -4.189211e-001 6.281772e-002 -3.048900e-002
         vertex -4.190122e-001 6.385960e-002 -3.048900e-002
      endloop
   endfacet
   facet normal 1.956482e-030 6.938627e-015 1.000000e+000
      outer loop
         vertex -4.694348e-001 3.006114e-002 -3.048900e-002
         vertex -4.190122e-001 6.385960e-002 -3.048900e-002
         vertex -5.000122e-001 8.321340e-002 -3.048900e-002
      endloop
   endfacet
   facet normal 1.956482e-030 6.938627e-015 1.000000e+000
      outer loop
         vertex -5.000122e-001 8.321340e-002 -3.048900e-002
         vertex -4.190122e-001 6.385960e-002 -3.048900e-002
         vertex -4.189211e-001 6.490149e-002 -3.048900e-002
      endloop
   endfacet
   facet normal 1.956482e-030 6.938627e-015 1.000000e+000
      outer loop
         vertex -5.000122e-001 8.321340e-002 -3.048900e-002
         vertex -4.189211e-001 6.490149e-002 -3.048900e-002
         vertex -4.186504e-001 6.591173e-002 -3.048900e-002
      endloop
   endfacet
   facet normal 1.956482e-030 6.938627e-015 1.000000e+000
      outer loop
         vertex -4.150643e-001 5.822145e-002 -3.048900e-002
         vertex -4.253170e-001 2.232524e-002 -3.048900e-002
         vertex -4.140541e-001 5.795076e-002 -3.048900e-002
      endloop
   endfacet
   facet normal 1.956482e-030 6.938627e-015 1.000000e+000
      outer loop
         vertex -4.140541e-001 5.795076e-002 -3.048900e-002
         vertex -4.253170e-001 2.232524e-002 -3.048900e-002
         vertex -4.218108e-001 1.737311e-002 -3.048900e-002
      endloop
   endfacet
   facet normal 1.956482e-030 6.938627e-015 1.000000e+000
      outer loop
         vertex -4.140541e-001 5.795076e-002 -3.048900e-002
         vertex -4.218108e-001 1.737311e-002 -3.048900e-002
         vertex -4.130122e-001 5.785960e-002 -3.048900e-002
      endloop
   endfacet
   facet normal 1.956482e-030 6.938627e-015 1.000000e+000
      outer loop
         vertex -4.130122e-001 5.785960e-002 -3.048900e-002
         vertex -4.218108e-001 1.737311e-002 -3.048900e-002
         vertex -4.192125e-001 1.188982e-002 -3.048900e-002
      endloop
   endfacet
   facet normal 1.956482e-030 6.938627e-015 1.000000e+000
      outer loop
         vertex -4.100122e-001 5.866345e-002 -3.048900e-002
         vertex -4.109601e-001 5.822145e-002 -3.048900e-002
         vertex -3.920122e-001 1.881527e-009 -3.048900e-002
      endloop
   endfacet
   facet normal 1.956482e-030 6.938627e-015 1.000000e+000
      outer loop
         vertex -3.920122e-001 1.881527e-009 -3.048900e-002
         vertex -4.109601e-001 5.822145e-002 -3.048900e-002
         vertex -4.119703e-001 5.795076e-002 -3.048900e-002
      endloop
   endfacet
   facet normal 1.956482e-030 6.938627e-015 1.000000e+000
      outer loop
         vertex -3.920122e-001 1.881527e-009 -3.048900e-002
         vertex -4.119703e-001 5.795076e-002 -3.048900e-002
         vertex -4.170226e-001 1.881527e-009 -3.048900e-002
      endloop
   endfacet
   facet normal 1.956482e-030 6.938627e-015 1.000000e+000
      outer loop
         vertex -4.170226e-001 1.881527e-009 -3.048900e-002
         vertex -4.119703e-001 5.795076e-002 -3.048900e-002
         vertex -4.130122e-001 5.785960e-002 -3.048900e-002
      endloop
   endfacet
   facet normal 1.956482e-030 6.938627e-015 1.000000e+000
      outer loop
         vertex -4.170226e-001 1.881527e-009 -3.048900e-002
         vertex -4.130122e-001 5.785960e-002 -3.048900e-002
         vertex -4.176003e-001 6.040180e-003 -3.048900e-002
      endloop
   endfacet
   facet normal 1.956482e-030 6.938627e-015 1.000000e+000
      outer loop
         vertex -4.176003e-001 6.040180e-003 -3.048900e-002
         vertex -4.130122e-001 5.785960e-002 -3.048900e-002
         vertex -4.192125e-001 1.188982e-002 -3.048900e-002
      endloop
   endfacet
   facet normal 1.956482e-030 6.938627e-015 1.000000e+000
      outer loop
         vertex -4.639294e-001 3.261239e-002 -3.048900e-002
         vertex -4.580662e-001 3.417448e-002 -3.048900e-002
         vertex -4.182084e-001 6.085960e-002 -3.048900e-002
      endloop
   endfacet
   facet normal 1.956482e-030 6.938627e-015 1.000000e+000
      outer loop
         vertex -4.182084e-001 6.085960e-002 -3.048900e-002
         vertex -4.580662e-001 3.417448e-002 -3.048900e-002
         vertex -4.520213e-001 3.470045e-002 -3.048900e-002
      endloop
   endfacet
   facet normal 1.956482e-030 6.938627e-015 1.000000e+000
      outer loop
         vertex -4.182084e-001 6.085960e-002 -3.048900e-002
         vertex -4.520213e-001 3.470045e-002 -3.048900e-002
         vertex -4.176085e-001 6.000288e-002 -3.048900e-002
      endloop
   endfacet
   facet normal 1.956482e-030 6.938627e-015 1.000000e+000
      outer loop
         vertex -4.176085e-001 6.000288e-002 -3.048900e-002
         vertex -4.520213e-001 3.470045e-002 -3.048900e-002
         vertex -4.459764e-001 3.417448e-002 -3.048900e-002
      endloop
   endfacet
   facet normal 1.956482e-030 6.938627e-015 1.000000e+000
      outer loop
         vertex -4.176085e-001 6.000288e-002 -3.048900e-002
         vertex -4.459764e-001 3.417448e-002 -3.048900e-002
         vertex -4.168689e-001 5.926334e-002 -3.048900e-002
      endloop
   endfacet
   facet normal 1.956482e-030 6.938627e-015 1.000000e+000
      outer loop
         vertex -4.168689e-001 5.926334e-002 -3.048900e-002
         vertex -4.459764e-001 3.417448e-002 -3.048900e-002
         vertex -4.401132e-001 3.261239e-002 -3.048900e-002
      endloop
   endfacet
   facet normal 1.956482e-030 6.938627e-015 1.000000e+000
      outer loop
         vertex -4.168689e-001 5.926334e-002 -3.048900e-002
         vertex -4.401132e-001 3.261239e-002 -3.048900e-002
         vertex -4.160122e-001 5.866345e-002 -3.048900e-002
      endloop
   endfacet
   facet normal 1.956482e-030 6.938627e-015 1.000000e+000
      outer loop
         vertex -4.160122e-001 5.866345e-002 -3.048900e-002
         vertex -4.401132e-001 3.261239e-002 -3.048900e-002
         vertex -4.346079e-001 3.006114e-002 -3.048900e-002
      endloop
   endfacet
   facet normal 1.956482e-030 6.938627e-015 1.000000e+000
      outer loop
         vertex -4.160122e-001 5.866345e-002 -3.048900e-002
         vertex -4.346079e-001 3.006114e-002 -3.048900e-002
         vertex -4.150643e-001 5.822145e-002 -3.048900e-002
      endloop
   endfacet
   facet normal 1.956482e-030 6.938627e-015 1.000000e+000
      outer loop
         vertex -4.150643e-001 5.822145e-002 -3.048900e-002
         vertex -4.346079e-001 3.006114e-002 -3.048900e-002
         vertex -4.296259e-001 2.659738e-002 -3.048900e-002
      endloop
   endfacet
   facet normal 1.956482e-030 6.938627e-015 1.000000e+000
      outer loop
         vertex -4.150643e-001 5.822145e-002 -3.048900e-002
         vertex -4.296259e-001 2.659738e-002 -3.048900e-002
         vertex -4.253170e-001 2.232524e-002 -3.048900e-002
      endloop
   endfacet
   facet normal 9.977993e-001 6.630605e-002 -4.600729e-016
      outer loop
         vertex -4.170226e-001 1.881528e-009 -1.469319e-003
         vertex -4.170226e-001 1.881527e-009 -3.048900e-002
         vertex -4.176003e-001 6.040180e-003 -3.048900e-002
      endloop
   endfacet
   facet normal 9.922791e-001 1.240247e-001 -8.605609e-016
      outer loop
         vertex -4.170226e-001 1.881528e-009 -1.469319e-003
         vertex -4.176003e-001 6.040180e-003 -3.048900e-002
         vertex -4.176003e-001 6.040180e-003 -1.469319e-003
      endloop
   endfacet
   facet normal 9.713530e-001 2.376411e-001 -1.648903e-015
      outer loop
         vertex -4.176003e-001 6.040180e-003 -1.469319e-003
         vertex -4.176003e-001 6.040180e-003 -3.048900e-002
         vertex -4.192125e-001 1.188982e-002 -3.048900e-002
      endloop
   endfacet
   facet normal 9.559471e-001 2.935390e-001 -2.036757e-015
      outer loop
         vertex -4.176003e-001 6.040180e-003 -1.469319e-003
         vertex -4.192125e-001 1.188982e-002 -3.048900e-002
         vertex -4.192125e-001 1.188982e-002 -1.469319e-003
      endloop
   endfacet
   facet normal 9.157126e-001 4.018339e-001 -2.788175e-015
      outer loop
         vertex -4.192125e-001 1.188982e-002 -1.469319e-003
         vertex -4.192125e-001 1.188982e-002 -3.048900e-002
         vertex -4.218108e-001 1.737311e-002 -3.048900e-002
      endloop
   endfacet
   facet normal 8.908840e-001 4.542309e-001 -3.151739e-015
      outer loop
         vertex -4.192125e-001 1.188982e-002 -1.469319e-003
         vertex -4.218108e-001 1.737311e-002 -3.048900e-002
         vertex -4.218108e-001 1.737311e-002 -1.469319e-003
      endloop
   endfacet
   facet normal 8.325503e-001 5.539494e-001 -3.843648e-015
      outer loop
         vertex -4.218108e-001 1.737311e-002 -1.469319e-003
         vertex -4.218108e-001 1.737311e-002 -3.048900e-002
         vertex -4.253170e-001 2.232524e-002 -3.048900e-002
      endloop
   endfacet
   facet normal 7.990453e-001 6.012709e-001 -4.171994e-015
      outer loop
         vertex -4.218108e-001 1.737311e-002 -1.469319e-003
         vertex -4.253170e-001 2.232524e-002 -3.048900e-002
         vertex -4.253170e-001 2.232524e-002 -1.469319e-003
      endloop
   endfacet
   facet normal 7.243656e-001 6.894160e-001 -4.783601e-015
      outer loop
         vertex -4.253170e-001 2.232524e-002 -1.469319e-003
         vertex -4.253170e-001 2.232524e-002 -3.048900e-002
         vertex -4.296259e-001 2.659738e-002 -3.048900e-002
      endloop
   endfacet
   facet normal 6.831911e-001 7.302396e-001 -5.066860e-015
      outer loop
         vertex -4.253170e-001 2.232524e-002 -1.469319e-003
         vertex -4.296259e-001 2.659738e-002 -3.048900e-002
         vertex -4.296259e-001 2.659738e-002 -1.469319e-003
      endloop
   endfacet
   facet normal 5.944101e-001 8.041621e-001 -5.579781e-015
      outer loop
         vertex -4.296259e-001 2.659738e-002 -1.469319e-003
         vertex -4.296259e-001 2.659738e-002 -3.048900e-002
         vertex -4.346079e-001 3.006114e-002 -3.048900e-002
      endloop
   endfacet
   facet normal 5.468036e-001 8.372609e-001 -5.809441e-015
      outer loop
         vertex -4.296259e-001 2.659738e-002 -1.469319e-003
         vertex -4.346079e-001 3.006114e-002 -3.048900e-002
         vertex -4.346079e-001 3.006114e-002 -1.469319e-003
      endloop
   endfacet
   facet normal 4.465894e-001 8.947390e-001 -6.208260e-015
      outer loop
         vertex -4.346079e-001 3.006114e-002 -1.469319e-003
         vertex -4.346079e-001 3.006114e-002 -3.048900e-002
         vertex -4.401132e-001 3.261239e-002 -3.048900e-002
      endloop
   endfacet
   facet normal 3.939818e-001 9.191182e-001 -6.377419e-015
      outer loop
         vertex -4.346079e-001 3.006114e-002 -1.469319e-003
         vertex -4.401132e-001 3.261239e-002 -3.048900e-002
         vertex -4.401132e-001 3.261239e-002 -1.469319e-003
      endloop
   endfacet
   facet normal 2.853465e-001 9.584244e-001 -6.650150e-015
      outer loop
         vertex -4.401132e-001 3.261239e-002 -1.469319e-003
         vertex -4.401132e-001 3.261239e-002 -3.048900e-002
         vertex -4.459764e-001 3.417448e-002 -3.048900e-002
      endloop
   endfacet
   facet normal 2.293189e-001 9.733514e-001 -6.753722e-015
      outer loop
         vertex -4.401132e-001 3.261239e-002 -1.469319e-003
         vertex -4.459764e-001 3.417448e-002 -3.048900e-002
         vertex -4.459764e-001 3.417448e-002 -1.469319e-003
      endloop
   endfacet
   facet normal 1.155275e-001 9.933043e-001 -6.892168e-015
      outer loop
         vertex -4.459764e-001 3.417448e-002 -1.469319e-003
         vertex -4.459764e-001 3.417448e-002 -3.048900e-002
         vertex -4.520213e-001 3.470045e-002 -3.048900e-002
      endloop
   endfacet
   facet normal 5.776374e-002 9.983303e-001 -6.927041e-015
      outer loop
         vertex -4.459764e-001 3.417448e-002 -1.469319e-003
         vertex -4.520213e-001 3.470045e-002 -3.048900e-002
         vertex -4.520213e-001 3.470045e-002 -1.469319e-003
      endloop
   endfacet
   facet normal -5.776374e-002 9.983303e-001 -6.927041e-015
      outer loop
         vertex -4.520213e-001 3.470045e-002 -1.469319e-003
         vertex -4.520213e-001 3.470045e-002 -3.048900e-002
         vertex -4.580662e-001 3.417448e-002 -3.048900e-002
      endloop
   endfacet
   facet normal -1.155275e-001 9.933043e-001 -6.892168e-015
      outer loop
         vertex -4.520213e-001 3.470045e-002 -1.469319e-003
         vertex -4.580662e-001 3.417448e-002 -3.048900e-002
         vertex -4.580662e-001 3.417448e-002 -1.469319e-003
      endloop
   endfacet
   facet normal -2.293189e-001 9.733514e-001 -6.753722e-015
      outer loop
         vertex -4.580662e-001 3.417448e-002 -1.469319e-003
         vertex -4.580662e-001 3.417448e-002 -3.048900e-002
         vertex -4.639294e-001 3.261239e-002 -3.048900e-002
      endloop
   endfacet
   facet normal -2.853465e-001 9.584244e-001 -6.650150e-015
      outer loop
         vertex -4.580662e-001 3.417448e-002 -1.469319e-003
         vertex -4.639294e-001 3.261239e-002 -3.048900e-002
         vertex -4.639294e-001 3.261239e-002 -1.469319e-003
      endloop
   endfacet
   facet normal -3.939818e-001 9.191182e-001 -6.377419e-015
      outer loop
         vertex -4.639294e-001 3.261239e-002 -1.469319e-003
         vertex -4.639294e-001 3.261239e-002 -3.048900e-002
         vertex -4.694348e-001 3.006114e-002 -3.048900e-002
      endloop
   endfacet
   facet normal -4.465894e-001 8.947390e-001 -6.208260e-015
      outer loop
         vertex -4.639294e-001 3.261239e-002 -1.469319e-003
         vertex -4.694348e-001 3.006114e-002 -3.048900e-002
         vertex -4.694348e-001 3.006114e-002 -1.469319e-003
      endloop
   endfacet
   facet normal -5.468036e-001 8.372609e-001 -5.809441e-015
      outer loop
         vertex -4.694348e-001 3.006114e-002 -1.469319e-003
         vertex -4.694348e-001 3.006114e-002 -3.048900e-002
         vertex -4.744167e-001 2.659738e-002 -3.048900e-002
      endloop
   endfacet
   facet normal -5.944101e-001 8.041621e-001 -5.579781e-015
      outer loop
         vertex -4.694348e-001 3.006114e-002 -1.469319e-003
         vertex -4.744167e-001 2.659738e-002 -3.048900e-002
         vertex -4.744167e-001 2.659738e-002 -1.469319e-003
      endloop
   endfacet
   facet normal -6.831911e-001 7.302396e-001 -5.066860e-015
      outer loop
         vertex -4.744167e-001 2.659738e-002 -1.469319e-003
         vertex -4.744167e-001 2.659738e-002 -3.048900e-002
         vertex -4.787256e-001 2.232524e-002 -3.048900e-002
      endloop
   endfacet
   facet normal -7.243656e-001 6.894160e-001 -4.783601e-015
      outer loop
         vertex -4.744167e-001 2.659738e-002 -1.469319e-003
         vertex -4.787256e-001 2.232524e-002 -3.048900e-002
         vertex -4.787256e-001 2.232524e-002 -1.469319e-003
      endloop
   endfacet
   facet normal -7.990453e-001 6.012709e-001 -4.171994e-015
      outer loop
         vertex -4.787256e-001 2.232524e-002 -1.469319e-003
         vertex -4.787256e-001 2.232524e-002 -3.048900e-002
         vertex -4.822319e-001 1.737311e-002 -3.048900e-002
      endloop
   endfacet
   facet normal -8.325503e-001 5.539494e-001 -3.843648e-015
      outer loop
         vertex -4.787256e-001 2.232524e-002 -1.469319e-003
         vertex -4.822319e-001 1.737311e-002 -3.048900e-002
         vertex -4.822319e-001 1.737311e-002 -1.469319e-003
      endloop
   endfacet
   facet normal -8.908840e-001 4.542309e-001 -3.151739e-015
      outer loop
         vertex -4.822319e-001 1.737311e-002 -1.469319e-003
         vertex -4.822319e-001 1.737311e-002 -3.048900e-002
         vertex -4.848301e-001 1.188982e-002 -3.048900e-002
      endloop
   endfacet
   facet normal -9.157126e-001 4.018339e-001 -2.788175e-015
      outer loop
         vertex -4.822319e-001 1.737311e-002 -1.469319e-003
         vertex -4.848301e-001 1.188982e-002 -3.048900e-002
         vertex -4.848301e-001 1.188982e-002 -1.469319e-003
      endloop
   endfacet
   facet normal -9.559471e-001 2.935390e-001 -2.036757e-015
      outer loop
         vertex -4.848301e-001 1.188982e-002 -1.469319e-003
         vertex -4.848301e-001 1.188982e-002 -3.048900e-002
         vertex -4.864423e-001 6.040180e-003 -3.048900e-002
      endloop
   endfacet
   facet normal -9.713530e-001 2.376412e-001 -1.648903e-015
      outer loop
         vertex -4.848301e-001 1.188982e-002 -1.469319e-003
         vertex -4.864423e-001 6.040180e-003 -3.048900e-002
         vertex -4.864423e-001 6.040180e-003 -1.469319e-003
      endloop
   endfacet
   facet normal -9.922791e-001 1.240247e-001 -8.605609e-016
      outer loop
         vertex -4.864423e-001 6.040180e-003 -1.469319e-003
         vertex -4.864423e-001 6.040180e-003 -3.048900e-002
         vertex -4.870200e-001 1.881527e-009 -3.048900e-002
      endloop
   endfacet
   facet normal -9.977993e-001 6.630605e-002 -4.600729e-016
      outer loop
         vertex -4.864423e-001 6.040180e-003 -1.469319e-003
         vertex -4.870200e-001 1.881527e-009 -3.048900e-002
         vertex -4.870200e-001 1.881528e-009 -1.469319e-003
      endloop
   endfacet
   facet normal 4.616664e-016 6.996741e-015 1.000000e+000
      outer loop
         vertex -4.864423e-001 6.040180e-003 -1.469319e-003
         vertex -4.870200e-001 1.881528e-009 -1.469319e-003
         vertex -4.170226e-001 1.881528e-009 -1.469319e-003
      endloop
   endfacet
   facet normal 4.616664e-016 6.996741e-015 1.000000e+000
      outer loop
         vertex -4.176003e-001 6.040180e-003 -1.469319e-003
         vertex -4.192125e-001 1.188982e-002 -1.469319e-003
         vertex -4.822319e-001 1.737311e-002 -1.469319e-003
      endloop
   endfacet
   facet normal 4.616664e-016 6.996741e-015 1.000000e+000
      outer loop
         vertex -4.176003e-001 6.040180e-003 -1.469319e-003
         vertex -4.822319e-001 1.737311e-002 -1.469319e-003
         vertex -4.170226e-001 1.881528e-009 -1.469319e-003
      endloop
   endfacet
   facet normal 4.616664e-016 6.996741e-015 1.000000e+000
      outer loop
         vertex -4.170226e-001 1.881528e-009 -1.469319e-003
         vertex -4.822319e-001 1.737311e-002 -1.469319e-003
         vertex -4.848301e-001 1.188982e-002 -1.469319e-003
      endloop
   endfacet
   facet normal 4.616664e-016 6.996741e-015 1.000000e+000
      outer loop
         vertex -4.170226e-001 1.881528e-009 -1.469319e-003
         vertex -4.848301e-001 1.188982e-002 -1.469319e-003
         vertex -4.864423e-001 6.040180e-003 -1.469319e-003
      endloop
   endfacet
   facet normal 4.616664e-016 6.996741e-015 1.000000e+000
      outer loop
         vertex -4.744167e-001 2.659738e-002 -1.469319e-003
         vertex -4.253170e-001 2.232524e-002 -1.469319e-003
         vertex -4.694348e-001 3.006114e-002 -1.469319e-003
      endloop
   endfacet
   facet normal 4.616664e-016 6.996741e-015 1.000000e+000
      outer loop
         vertex -4.694348e-001 3.006114e-002 -1.469319e-003
         vertex -4.253170e-001 2.232524e-002 -1.469319e-003
         vertex -4.296259e-001 2.659738e-002 -1.469319e-003
      endloop
   endfacet
   facet normal 4.616664e-016 6.996741e-015 1.000000e+000
      outer loop
         vertex -4.192125e-001 1.188982e-002 -1.469319e-003
         vertex -4.218108e-001 1.737311e-002 -1.469319e-003
         vertex -4.822319e-001 1.737311e-002 -1.469319e-003
      endloop
   endfacet
   facet normal 4.616664e-016 6.996741e-015 1.000000e+000
      outer loop
         vertex -4.822319e-001 1.737311e-002 -1.469319e-003
         vertex -4.218108e-001 1.737311e-002 -1.469319e-003
         vertex -4.253170e-001 2.232524e-002 -1.469319e-003
      endloop
   endfacet
   facet normal 4.616664e-016 6.996741e-015 1.000000e+000
      outer loop
         vertex -4.822319e-001 1.737311e-002 -1.469319e-003
         vertex -4.253170e-001 2.232524e-002 -1.469319e-003
         vertex -4.787256e-001 2.232524e-002 -1.469319e-003
      endloop
   endfacet
   facet normal 4.616664e-016 6.996741e-015 1.000000e+000
      outer loop
         vertex -4.787256e-001 2.232524e-002 -1.469319e-003
         vertex -4.253170e-001 2.232524e-002 -1.469319e-003
         vertex -4.744167e-001 2.659738e-002 -1.469319e-003
      endloop
   endfacet
   facet normal 4.616664e-016 6.996741e-015 1.000000e+000
      outer loop
         vertex -4.296259e-001 2.659738e-002 -1.469319e-003
         vertex -4.346079e-001 3.006114e-002 -1.469319e-003
         vertex -4.694348e-001 3.006114e-002 -1.469319e-003
      endloop
   endfacet
   facet normal 4.616664e-016 6.996741e-015 1.000000e+000
      outer loop
         vertex -4.694348e-001 3.006114e-002 -1.469319e-003
         vertex -4.346079e-001 3.006114e-002 -1.469319e-003
         vertex -4.401132e-001 3.261239e-002 -1.469319e-003
      endloop
   endfacet
   facet normal 4.616664e-016 6.996741e-015 1.000000e+000
      outer loop
         vertex -4.694348e-001 3.006114e-002 -1.469319e-003
         vertex -4.401132e-001 3.261239e-002 -1.469319e-003
         vertex -4.459764e-001 3.417448e-002 -1.469319e-003
      endloop
   endfacet
   facet normal 4.616664e-016 6.996741e-015 1.000000e+000
      outer loop
         vertex -4.459764e-001 3.417448e-002 -1.469319e-003
         vertex -4.520213e-001 3.470045e-002 -1.469319e-003
         vertex -4.694348e-001 3.006114e-002 -1.469319e-003
      endloop
   endfacet
   facet normal 4.616664e-016 6.996741e-015 1.000000e+000
      outer loop
         vertex -4.694348e-001 3.006114e-002 -1.469319e-003
         vertex -4.520213e-001 3.470045e-002 -1.469319e-003
         vertex -4.580662e-001 3.417448e-002 -1.469319e-003
      endloop
   endfacet
   facet normal 4.616664e-016 6.996741e-015 1.000000e+000
      outer loop
         vertex -4.694348e-001 3.006114e-002 -1.469319e-003
         vertex -4.580662e-001 3.417448e-002 -1.469319e-003
         vertex -4.639294e-001 3.261239e-002 -1.469319e-003
      endloop
   endfacet
   facet normal 1.375309e-017 4.955071e-002 9.987716e-001
      outer loop
         vertex -5.600122e-001 1.881527e-009 -7.346948e-002
         vertex -5.000122e-001 1.881527e-009 -7.346948e-002
         vertex -5.000122e-001 6.269956e-003 -7.394595e-002
      endloop
   endfacet
   facet normal 2.829525e-017 1.019444e-001 9.947901e-001
      outer loop
         vertex -5.600122e-001 1.881527e-009 -7.346948e-002
         vertex -5.000122e-001 6.269956e-003 -7.394595e-002
         vertex -5.600122e-001 6.269956e-003 -7.394595e-002
      endloop
   endfacet
   facet normal 5.702672e-017 2.054604e-001 9.786654e-001
      outer loop
         vertex -5.600122e-001 6.269956e-003 -7.394595e-002
         vertex -5.000122e-001 6.269956e-003 -7.394595e-002
         vertex -5.000122e-001 1.238777e-002 -7.539912e-002
      endloop
   endfacet
   facet normal 7.121602e-017 2.565828e-001 9.665223e-001
      outer loop
         vertex -5.600122e-001 6.269956e-003 -7.394595e-002
         vertex -5.000122e-001 1.238777e-002 -7.539912e-002
         vertex -5.600122e-001 1.238777e-002 -7.539912e-002
      endloop
   endfacet
   facet normal 9.889111e-017 3.562928e-001 9.343744e-001
      outer loop
         vertex -5.600122e-001 1.238777e-002 -7.539912e-002
         vertex -5.000122e-001 1.238777e-002 -7.539912e-002
         vertex -5.000122e-001 1.820226e-002 -7.779309e-002
      endloop
   endfacet
   facet normal 1.123769e-016 4.048805e-001 9.143696e-001
      outer loop
         vertex -5.600122e-001 1.238777e-002 -7.539912e-002
         vertex -5.000122e-001 1.820226e-002 -7.779309e-002
         vertex -5.600122e-001 1.820226e-002 -7.779309e-002
      endloop
   endfacet
   facet normal 1.383117e-016 4.983205e-001 8.669930e-001
      outer loop
         vertex -5.600122e-001 1.820226e-002 -7.779309e-002
         vertex -5.000122e-001 1.820226e-002 -7.779309e-002
         vertex -5.000122e-001 2.356973e-002 -8.106869e-002
      endloop
   endfacet
   facet normal 1.507607e-016 5.431727e-001 8.396210e-001
      outer loop
         vertex -5.600122e-001 1.820226e-002 -7.779309e-002
         vertex -5.000122e-001 2.356973e-002 -8.106869e-002
         vertex -5.600122e-001 2.356973e-002 -8.106869e-002
      endloop
   endfacet
   facet normal 1.743143e-016 6.280335e-001 7.781863e-001
      outer loop
         vertex -5.600122e-001 2.356973e-002 -8.106869e-002
         vertex -5.000122e-001 2.356973e-002 -8.106869e-002
         vertex -5.000122e-001 2.835755e-002 -8.514498e-002
      endloop
   endfacet
   facet normal 1.854189e-016 6.680420e-001 7.441235e-001
      outer loop
         vertex -5.600122e-001 2.356973e-002 -8.106869e-002
         vertex -5.000122e-001 2.835755e-002 -8.514498e-002
         vertex -5.600122e-001 2.835755e-002 -8.514498e-002
      endloop
   endfacet
   facet normal 2.060093e-016 7.422265e-001 6.701490e-001
      outer loop
         vertex -5.600122e-001 2.835755e-002 -8.514498e-002
         vertex -5.000122e-001 2.835755e-002 -8.514498e-002
         vertex -5.000122e-001 3.244740e-002 -8.992123e-002
      endloop
   endfacet
   facet normal 2.154950e-016 7.764026e-001 6.302373e-001
      outer loop
         vertex -5.600122e-001 2.835755e-002 -8.514498e-002
         vertex -5.000122e-001 3.244740e-002 -8.992123e-002
         vertex -5.600122e-001 3.244740e-002 -8.992123e-002
      endloop
   endfacet
   facet normal 2.326133e-016 8.380777e-001 5.455510e-001
      outer loop
         vertex -5.600122e-001 3.244740e-002 -8.992123e-002
         vertex -5.000122e-001 3.244740e-002 -8.992123e-002
         vertex -5.000122e-001 3.573821e-002 -9.527940e-002
      endloop
   endfacet
   facet normal 2.402458e-016 8.655766e-001 5.007765e-001
      outer loop
         vertex -5.600122e-001 3.244740e-002 -8.992123e-002
         vertex -5.000122e-001 3.573821e-002 -9.527940e-002
         vertex -5.600122e-001 3.573821e-002 -9.527940e-002
      endloop
   endfacet
   facet normal 2.534689e-016 9.132180e-001 4.074712e-001
      outer loop
         vertex -5.600122e-001 3.573821e-002 -9.527940e-002
         vertex -5.000122e-001 3.573821e-002 -9.527940e-002
         vertex -5.000122e-001 3.814865e-002 -1.010871e-001
      endloop
   endfacet
   facet normal 2.590596e-016 9.333605e-001 3.589405e-001
      outer loop
         vertex -5.600122e-001 3.573821e-002 -9.527940e-002
         vertex -5.000122e-001 3.814865e-002 -1.010871e-001
         vertex -5.600122e-001 3.814865e-002 -1.010871e-001
      endloop
   endfacet
   facet normal 2.680608e-016 9.657909e-001 2.593220e-001
      outer loop
         vertex -5.600122e-001 3.814865e-002 -1.010871e-001
         vertex -5.000122e-001 3.814865e-002 -1.010871e-001
         vertex -5.000122e-001 3.961917e-002 -1.072007e-001
      endloop
   endfacet
   facet normal 2.714714e-016 9.780790e-001 2.082343e-001
      outer loop
         vertex -5.600122e-001 3.814865e-002 -1.010871e-001
         vertex -5.000122e-001 3.961917e-002 -1.072007e-001
         vertex -5.600122e-001 3.961917e-002 -1.072007e-001
      endloop
   endfacet
   facet normal 2.760284e-016 9.944971e-001 1.047644e-001
      outer loop
         vertex -5.600122e-001 3.961917e-002 -1.072007e-001
         vertex -5.000122e-001 3.961917e-002 -1.072007e-001
         vertex -5.000122e-001 4.011341e-002 -1.134693e-001
      endloop
   endfacet
   facet normal 2.771747e-016 9.986271e-001 5.238219e-002
      outer loop
         vertex -5.600122e-001 3.961917e-002 -1.072007e-001
         vertex -5.000122e-001 4.011341e-002 -1.134693e-001
         vertex -5.600122e-001 4.011341e-002 -1.134693e-001
      endloop
   endfacet
   facet normal 2.771747e-016 9.986271e-001 -5.238219e-002
      outer loop
         vertex -5.600122e-001 4.011341e-002 -1.134693e-001
         vertex -5.000122e-001 4.011341e-002 -1.134693e-001
         vertex -5.000122e-001 3.961917e-002 -1.197379e-001
      endloop
   endfacet
   facet normal 2.760284e-016 9.944971e-001 -1.047644e-001
      outer loop
         vertex -5.600122e-001 4.011341e-002 -1.134693e-001
         vertex -5.000122e-001 3.961917e-002 -1.197379e-001
         vertex -5.600122e-001 3.961917e-002 -1.197379e-001
      endloop
   endfacet
   facet normal 2.714714e-016 9.780790e-001 -2.082343e-001
      outer loop
         vertex -5.600122e-001 3.961917e-002 -1.197379e-001
         vertex -5.000122e-001 3.961917e-002 -1.197379e-001
         vertex -5.000122e-001 3.814865e-002 -1.258516e-001
      endloop
   endfacet
   facet normal 2.680608e-016 9.657909e-001 -2.593220e-001
      outer loop
         vertex -5.600122e-001 3.961917e-002 -1.197379e-001
         vertex -5.000122e-001 3.814865e-002 -1.258516e-001
         vertex -5.600122e-001 3.814865e-002 -1.258516e-001
      endloop
   endfacet
   facet normal 2.590596e-016 9.333605e-001 -3.589405e-001
      outer loop
         vertex -5.600122e-001 3.814865e-002 -1.258516e-001
         vertex -5.000122e-001 3.814865e-002 -1.258516e-001
         vertex -5.000122e-001 3.573821e-002 -1.316592e-001
      endloop
   endfacet
   facet normal 2.534689e-016 9.132180e-001 -4.074712e-001
      outer loop
         vertex -5.600122e-001 3.814865e-002 -1.258516e-001
         vertex -5.000122e-001 3.573821e-002 -1.316592e-001
         vertex -5.600122e-001 3.573821e-002 -1.316592e-001
      endloop
   endfacet
   facet normal 2.402458e-016 8.655766e-001 -5.007765e-001
      outer loop
         vertex -5.600122e-001 3.573821e-002 -1.316592e-001
         vertex -5.000122e-001 3.573821e-002 -1.316592e-001
         vertex -5.000122e-001 3.244740e-002 -1.370174e-001
      endloop
   endfacet
   facet normal 2.326133e-016 8.380777e-001 -5.455510e-001
      outer loop
         vertex -5.600122e-001 3.573821e-002 -1.316592e-001
         vertex -5.000122e-001 3.244740e-002 -1.370174e-001
         vertex -5.600122e-001 3.244740e-002 -1.370174e-001
      endloop
   endfacet
   facet normal 2.154950e-016 7.764026e-001 -6.302372e-001
      outer loop
         vertex -5.600122e-001 3.244740e-002 -1.370174e-001
         vertex -5.000122e-001 3.244740e-002 -1.370174e-001
         vertex -5.000122e-001 2.835755e-002 -1.417937e-001
      endloop
   endfacet
   facet normal 2.060093e-016 7.422265e-001 -6.701490e-001
      outer loop
         vertex -5.600122e-001 3.244740e-002 -1.370174e-001
         vertex -5.000122e-001 2.835755e-002 -1.417937e-001
         vertex -5.600122e-001 2.835755e-002 -1.417937e-001
      endloop
   endfacet
   facet normal 1.854189e-016 6.680420e-001 -7.441235e-001
      outer loop
         vertex -5.600122e-001 2.835755e-002 -1.417937e-001
         vertex -5.000122e-001 2.835755e-002 -1.417937e-001
         vertex -5.000122e-001 2.356973e-002 -1.458700e-001
      endloop
   endfacet
   facet normal 1.743143e-016 6.280335e-001 -7.781863e-001
      outer loop
         vertex -5.600122e-001 2.835755e-002 -1.417937e-001
         vertex -5.000122e-001 2.356973e-002 -1.458700e-001
         vertex -5.600122e-001 2.356973e-002 -1.458700e-001
      endloop
   endfacet
   facet normal 1.507607e-016 5.431727e-001 -8.396210e-001
      outer loop
         vertex -5.600122e-001 2.356973e-002 -1.458700e-001
         vertex -5.000122e-001 2.356973e-002 -1.458700e-001
         vertex -5.000122e-001 1.820226e-002 -1.491456e-001
      endloop
   endfacet
   facet normal 1.383117e-016 4.983205e-001 -8.669930e-001
      outer loop
         vertex -5.600122e-001 2.356973e-002 -1.458700e-001
         vertex -5.000122e-001 1.820226e-002 -1.491456e-001
         vertex -5.600122e-001 1.820226e-002 -1.491456e-001
      endloop
   endfacet
   facet normal 1.123769e-016 4.048805e-001 -9.143696e-001
      outer loop
         vertex -5.600122e-001 1.820226e-002 -1.491456e-001
         vertex -5.000122e-001 1.820226e-002 -1.491456e-001
         vertex -5.000122e-001 1.238777e-002 -1.515395e-001
      endloop
   endfacet
   facet normal 9.889111e-017 3.562928e-001 -9.343744e-001
      outer loop
         vertex -5.600122e-001 1.820226e-002 -1.491456e-001
         vertex -5.000122e-001 1.238777e-002 -1.515395e-001
         vertex -5.600122e-001 1.238777e-002 -1.515395e-001
      endloop
   endfacet
   facet normal 7.121602e-017 2.565828e-001 -9.665223e-001
      outer loop
         vertex -5.600122e-001 1.238777e-002 -1.515395e-001
         vertex -5.000122e-001 1.238777e-002 -1.515395e-001
         vertex -5.000122e-001 6.269956e-003 -1.529927e-001
      endloop
   endfacet
   facet normal 5.702672e-017 2.054604e-001 -9.786654e-001
      outer loop
         vertex -5.600122e-001 1.238777e-002 -1.515395e-001
         vertex -5.000122e-001 6.269956e-003 -1.529927e-001
         vertex -5.600122e-001 6.269956e-003 -1.529927e-001
      endloop
   endfacet
   facet normal 2.829525e-017 1.019444e-001 -9.947901e-001
      outer loop
         vertex -5.600122e-001 6.269956e-003 -1.529927e-001
         vertex -5.000122e-001 6.269956e-003 -1.529927e-001
         vertex -5.000122e-001 1.881526e-009 -1.534692e-001
      endloop
   endfacet
   facet normal 1.375308e-017 4.955070e-002 -9.987716e-001
      outer loop
         vertex -5.600122e-001 6.269956e-003 -1.529927e-001
         vertex -5.000122e-001 1.881526e-009 -1.534692e-001
         vertex -5.600122e-001 1.881526e-009 -1.534692e-001
      endloop
   endfacet
   facet normal -1.000000e+000 2.775558e-016 -1.531303e-032
      outer loop
         vertex -5.600122e-001 3.814865e-002 -1.010871e-001
         vertex -5.600122e-001 3.961917e-002 -1.072007e-001
         vertex -5.600122e-001 2.356973e-002 -1.458700e-001
      endloop
   endfacet
   facet normal -1.000000e+000 2.775558e-016 -1.531303e-032
      outer loop
         vertex -5.600122e-001 1.820226e-002 -1.491456e-001
         vertex -5.600122e-001 1.238777e-002 -1.515395e-001
         vertex -5.600122e-001 1.881527e-009 -7.346948e-002
      endloop
   endfacet
   facet normal -1.000000e+000 2.775558e-016 -1.531303e-032
      outer loop
         vertex -5.600122e-001 1.881527e-009 -7.346948e-002
         vertex -5.600122e-001 1.238777e-002 -1.515395e-001
         vertex -5.600122e-001 6.269956e-003 -1.529927e-001
      endloop
   endfacet
   facet normal -1.000000e+000 2.775558e-016 -1.531303e-032
      outer loop
         vertex -5.600122e-001 1.881527e-009 -7.346948e-002
         vertex -5.600122e-001 6.269956e-003 -1.529927e-001
         vertex -5.600122e-001 1.881526e-009 -1.534692e-001
      endloop
   endfacet
   facet normal -1.000000e+000 2.775558e-016 -1.531303e-032
      outer loop
         vertex -5.600122e-001 1.820226e-002 -1.491456e-001
         vertex -5.600122e-001 1.881527e-009 -7.346948e-002
         vertex -5.600122e-001 2.356973e-002 -1.458700e-001
      endloop
   endfacet
   facet normal -1.000000e+000 2.775558e-016 -1.531303e-032
      outer loop
         vertex -5.600122e-001 2.356973e-002 -1.458700e-001
         vertex -5.600122e-001 1.881527e-009 -7.346948e-002
         vertex -5.600122e-001 6.269956e-003 -7.394595e-002
      endloop
   endfacet
   facet normal -1.000000e+000 2.775558e-016 -1.531303e-032
      outer loop
         vertex -5.600122e-001 2.356973e-002 -1.458700e-001
         vertex -5.600122e-001 6.269956e-003 -7.394595e-002
         vertex -5.600122e-001 1.238777e-002 -7.539912e-002
      endloop
   endfacet
   facet normal -1.000000e+000 2.775558e-016 -1.531303e-032
      outer loop
         vertex -5.600122e-001 1.238777e-002 -7.539912e-002
         vertex -5.600122e-001 1.820226e-002 -7.779309e-002
         vertex -5.600122e-001 2.356973e-002 -1.458700e-001
      endloop
   endfacet
   facet normal -1.000000e+000 2.775558e-016 -1.531303e-032
      outer loop
         vertex -5.600122e-001 2.356973e-002 -1.458700e-001
         vertex -5.600122e-001 1.820226e-002 -7.779309e-002
         vertex -5.600122e-001 2.356973e-002 -8.106869e-002
      endloop
   endfacet
   facet normal -1.000000e+000 2.775558e-016 -1.531303e-032
      outer loop
         vertex -5.600122e-001 2.356973e-002 -1.458700e-001
         vertex -5.600122e-001 2.356973e-002 -8.106869e-002
         vertex -5.600122e-001 2.835755e-002 -8.514498e-002
      endloop
   endfacet
   facet normal -1.000000e+000 2.775558e-016 -1.531303e-032
      outer loop
         vertex -5.600122e-001 2.835755e-002 -8.514498e-002
         vertex -5.600122e-001 3.244740e-002 -8.992123e-002
         vertex -5.600122e-001 2.356973e-002 -1.458700e-001
      endloop
   endfacet
   facet normal -1.000000e+000 2.775558e-016 -1.531303e-032
      outer loop
         vertex -5.600122e-001 2.356973e-002 -1.458700e-001
         vertex -5.600122e-001 3.244740e-002 -8.992123e-002
         vertex -5.600122e-001 3.573821e-002 -9.527940e-002
      endloop
   endfacet
   facet normal -1.000000e+000 2.775558e-016 -1.531303e-032
      outer loop
         vertex -5.600122e-001 2.356973e-002 -1.458700e-001
         vertex -5.600122e-001 3.573821e-002 -9.527940e-002
         vertex -5.600122e-001 3.814865e-002 -1.010871e-001
      endloop
   endfacet
   facet normal -1.000000e+000 2.775558e-016 -1.531303e-032
      outer loop
         vertex -5.600122e-001 3.961917e-002 -1.072007e-001
         vertex -5.600122e-001 4.011341e-002 -1.134693e-001
         vertex -5.600122e-001 2.356973e-002 -1.458700e-001
      endloop
   endfacet
   facet normal -1.000000e+000 2.775558e-016 -1.531303e-032
      outer loop
         vertex -5.600122e-001 2.356973e-002 -1.458700e-001
         vertex -5.600122e-001 4.011341e-002 -1.134693e-001
         vertex -5.600122e-001 3.961917e-002 -1.197379e-001
      endloop
   endfacet
   facet normal -1.000000e+000 2.775558e-016 -1.531303e-032
      outer loop
         vertex -5.600122e-001 2.356973e-002 -1.458700e-001
         vertex -5.600122e-001 3.961917e-002 -1.197379e-001
         vertex -5.600122e-001 3.814865e-002 -1.258516e-001
      endloop
   endfacet
   facet normal -1.000000e+000 2.775558e-016 -1.531303e-032
      outer loop
         vertex -5.600122e-001 3.814865e-002 -1.258516e-001
         vertex -5.600122e-001 3.573821e-002 -1.316592e-001
         vertex -5.600122e-001 2.356973e-002 -1.458700e-001
      endloop
   endfacet
   facet normal -1.000000e+000 2.775558e-016 -1.531303e-032
      outer loop
         vertex -5.600122e-001 2.356973e-002 -1.458700e-001
         vertex -5.600122e-001 3.573821e-002 -1.316592e-001
         vertex -5.600122e-001 3.244740e-002 -1.370174e-001
      endloop
   endfacet
   facet normal -1.000000e+000 2.775558e-016 -1.531303e-032
      outer loop
         vertex -5.600122e-001 2.356973e-002 -1.458700e-001
         vertex -5.600122e-001 3.244740e-002 -1.370174e-001
         vertex -5.600122e-001 2.835755e-002 -1.417937e-001
      endloop
   endfacet
   facet normal 1.942687e-030 6.888925e-015 1.000000e+000
      outer loop
         vertex -3.920122e-001 1.282134e-001 -7.048901e-002
         vertex -5.000122e-001 1.282134e-001 -7.048901e-002
         vertex -3.920122e-001 8.321340e-002 -7.048901e-002
      endloop
   endfacet
   facet normal 1.942687e-030 6.888925e-015 1.000000e+000
      outer loop
         vertex -3.920122e-001 8.321340e-002 -7.048901e-002
         vertex -5.000122e-001 1.282134e-001 -7.048901e-002
         vertex -5.000122e-001 8.321340e-002 -7.048901e-002
      endloop
   endfacet
   facet normal 2.775558e-016 1.000000e+000 -7.105427e-015
      outer loop
         vertex -3.920122e-001 1.282134e-001 -7.048901e-002
         vertex -3.920122e-001 1.282134e-001 -1.564496e-001
         vertex -5.000122e-001 1.282134e-001 -7.048901e-002
      endloop
   endfacet
   facet normal 2.775558e-016 1.000000e+000 -7.105427e-015
      outer loop
         vertex -5.000122e-001 1.282134e-001 -7.048901e-002
         vertex -3.920122e-001 1.282134e-001 -1.564496e-001
         vertex -5.000122e-001 1.282134e-001 -1.564496e-001
      endloop
   endfacet
   facet normal 5.345519e-016 1.000000e+000 -6.888925e-015
      outer loop
         vertex -5.000122e-001 8.321340e-002 -3.048900e-002
         vertex -3.920122e-001 8.321340e-002 -3.048900e-002
         vertex -5.000122e-001 8.321340e-002 -7.048901e-002
      endloop
   endfacet
   facet normal 5.345519e-016 1.000000e+000 -6.888925e-015
      outer loop
         vertex -5.000122e-001 8.321340e-002 -7.048901e-002
         vertex -3.920122e-001 8.321340e-002 -3.048900e-002
         vertex -3.920122e-001 8.321340e-002 -7.048901e-002
      endloop
   endfacet
   facet normal 2.002778e-030 7.105427e-015 1.000000e+000
      outer loop
         vertex -4.186504e-001 6.591173e-002 2.653068e-002
         vertex -4.189211e-001 6.490149e-002 2.653068e-002
         vertex -4.130122e-001 6.385960e-002 2.653068e-002
      endloop
   endfacet
   facet normal 2.002778e-030 7.105427e-015 1.000000e+000
      outer loop
         vertex -4.130122e-001 6.385960e-002 2.653068e-002
         vertex -4.189211e-001 6.490149e-002 2.653068e-002
         vertex -4.190122e-001 6.385960e-002 2.653068e-002
      endloop
   endfacet
   facet normal 2.002778e-030 7.105427e-015 1.000000e+000
      outer loop
         vertex -4.130122e-001 6.385960e-002 2.653068e-002
         vertex -4.190122e-001 6.385960e-002 2.653068e-002
         vertex -4.189211e-001 6.281772e-002 2.653068e-002
      endloop
   endfacet
   facet normal 2.002778e-030 7.105427e-015 1.000000e+000
      outer loop
         vertex -4.168689e-001 6.845587e-002 2.653068e-002
         vertex -4.176085e-001 6.771633e-002 2.653068e-002
         vertex -4.130122e-001 6.385960e-002 2.653068e-002
      endloop
   endfacet
   facet normal 2.002778e-030 7.105427e-015 1.000000e+000
      outer loop
         vertex -4.130122e-001 6.385960e-002 2.653068e-002
         vertex -4.176085e-001 6.771633e-002 2.653068e-002
         vertex -4.182084e-001 6.685960e-002 2.653068e-002
      endloop
   endfacet
   facet normal 2.002778e-030 7.105427e-015 1.000000e+000
      outer loop
         vertex -4.130122e-001 6.385960e-002 2.653068e-002
         vertex -4.182084e-001 6.685960e-002 2.653068e-002
         vertex -4.186504e-001 6.591173e-002 2.653068e-002
      endloop
   endfacet
   facet normal 2.002778e-030 7.105427e-015 1.000000e+000
      outer loop
         vertex -4.140541e-001 6.976845e-002 2.653068e-002
         vertex -4.150643e-001 6.949776e-002 2.653068e-002
         vertex -4.130122e-001 6.385960e-002 2.653068e-002
      endloop
   endfacet
   facet normal 2.002778e-030 7.105427e-015 1.000000e+000
      outer loop
         vertex -4.130122e-001 6.385960e-002 2.653068e-002
         vertex -4.150643e-001 6.949776e-002 2.653068e-002
         vertex -4.160122e-001 6.905576e-002 2.653068e-002
      endloop
   endfacet
   facet normal 2.002778e-030 7.105427e-015 1.000000e+000
      outer loop
         vertex -4.130122e-001 6.385960e-002 2.653068e-002
         vertex -4.160122e-001 6.905576e-002 2.653068e-002
         vertex -4.168689e-001 6.845587e-002 2.653068e-002
      endloop
   endfacet
   facet normal 2.002778e-030 7.105427e-015 1.000000e+000
      outer loop
         vertex -4.109601e-001 6.949776e-002 2.653068e-002
         vertex -4.119703e-001 6.976845e-002 2.653068e-002
         vertex -4.130122e-001 6.385960e-002 2.653068e-002
      endloop
   endfacet
   facet normal 2.002778e-030 7.105427e-015 1.000000e+000
      outer loop
         vertex -4.130122e-001 6.385960e-002 2.653068e-002
         vertex -4.119703e-001 6.976845e-002 2.653068e-002
         vertex -4.130122e-001 6.985960e-002 2.653068e-002
      endloop
   endfacet
   facet normal 2.002778e-030 7.105427e-015 1.000000e+000
      outer loop
         vertex -4.130122e-001 6.385960e-002 2.653068e-002
         vertex -4.130122e-001 6.985960e-002 2.653068e-002
         vertex -4.140541e-001 6.976845e-002 2.653068e-002
      endloop
   endfacet
   facet normal 2.002778e-030 7.105427e-015 1.000000e+000
      outer loop
         vertex -4.084159e-001 6.771633e-002 2.653068e-002
         vertex -4.091555e-001 6.845587e-002 2.653068e-002
         vertex -4.130122e-001 6.385960e-002 2.653068e-002
      endloop
   endfacet
   facet normal 2.002778e-030 7.105427e-015 1.000000e+000
      outer loop
         vertex -4.130122e-001 6.385960e-002 2.653068e-002
         vertex -4.091555e-001 6.845587e-002 2.653068e-002
         vertex -4.100122e-001 6.905576e-002 2.653068e-002
      endloop
   endfacet
   facet normal 2.002778e-030 7.105427e-015 1.000000e+000
      outer loop
         vertex -4.130122e-001 6.385960e-002 2.653068e-002
         vertex -4.100122e-001 6.905576e-002 2.653068e-002
         vertex -4.109601e-001 6.949776e-002 2.653068e-002
      endloop
   endfacet
   facet normal 2.002778e-030 7.105427e-015 1.000000e+000
      outer loop
         vertex -4.071034e-001 6.490149e-002 2.653068e-002
         vertex -4.073741e-001 6.591173e-002 2.653068e-002
         vertex -4.130122e-001 6.385960e-002 2.653068e-002
      endloop
   endfacet
   facet normal 2.002778e-030 7.105427e-015 1.000000e+000
      outer loop
         vertex -4.130122e-001 6.385960e-002 2.653068e-002
         vertex -4.073741e-001 6.591173e-002 2.653068e-002
         vertex -4.078161e-001 6.685960e-002 2.653068e-002
      endloop
   endfacet
   facet normal 2.002778e-030 7.105427e-015 1.000000e+000
      outer loop
         vertex -4.130122e-001 6.385960e-002 2.653068e-002
         vertex -4.078161e-001 6.685960e-002 2.653068e-002
         vertex -4.084159e-001 6.771633e-002 2.653068e-002
      endloop
   endfacet
   facet normal 2.002778e-030 7.105427e-015 1.000000e+000
      outer loop
         vertex -4.073741e-001 6.180748e-002 2.653068e-002
         vertex -4.071034e-001 6.281772e-002 2.653068e-002
         vertex -4.130122e-001 6.385960e-002 2.653068e-002
      endloop
   endfacet
   facet normal 2.002778e-030 7.105427e-015 1.000000e+000
      outer loop
         vertex -4.130122e-001 6.385960e-002 2.653068e-002
         vertex -4.071034e-001 6.281772e-002 2.653068e-002
         vertex -4.070122e-001 6.385960e-002 2.653068e-002
      endloop
   endfacet
   facet normal 2.002778e-030 7.105427e-015 1.000000e+000
      outer loop
         vertex -4.130122e-001 6.385960e-002 2.653068e-002
         vertex -4.070122e-001 6.385960e-002 2.653068e-002
         vertex -4.071034e-001 6.490149e-002 2.653068e-002
      endloop
   endfacet
   facet normal 2.002778e-030 7.105427e-015 1.000000e+000
      outer loop
         vertex -4.091555e-001 5.926334e-002 2.653068e-002
         vertex -4.084159e-001 6.000288e-002 2.653068e-002
         vertex -4.130122e-001 6.385960e-002 2.653068e-002
      endloop
   endfacet
   facet normal 2.002778e-030 7.105427e-015 1.000000e+000
      outer loop
         vertex -4.130122e-001 6.385960e-002 2.653068e-002
         vertex -4.084159e-001 6.000288e-002 2.653068e-002
         vertex -4.078161e-001 6.085960e-002 2.653068e-002
      endloop
   endfacet
   facet normal 2.002778e-030 7.105427e-015 1.000000e+000
      outer loop
         vertex -4.130122e-001 6.385960e-002 2.653068e-002
         vertex -4.078161e-001 6.085960e-002 2.653068e-002
         vertex -4.073741e-001 6.180748e-002 2.653068e-002
      endloop
   endfacet
   facet normal 2.002778e-030 7.105427e-015 1.000000e+000
      outer loop
         vertex -4.119703e-001 5.795076e-002 2.653068e-002
         vertex -4.109601e-001 5.822145e-002 2.653068e-002
         vertex -4.130122e-001 6.385960e-002 2.653068e-002
      endloop
   endfacet
   facet normal 2.002778e-030 7.105427e-015 1.000000e+000
      outer loop
         vertex -4.130122e-001 6.385960e-002 2.653068e-002
         vertex -4.109601e-001 5.822145e-002 2.653068e-002
         vertex -4.100122e-001 5.866345e-002 2.653068e-002
      endloop
   endfacet
   facet normal 2.002778e-030 7.105427e-015 1.000000e+000
      outer loop
         vertex -4.130122e-001 6.385960e-002 2.653068e-002
         vertex -4.100122e-001 5.866345e-002 2.653068e-002
         vertex -4.091555e-001 5.926334e-002 2.653068e-002
      endloop
   endfacet
   facet normal 2.002778e-030 7.105427e-015 1.000000e+000
      outer loop
         vertex -4.150643e-001 5.822145e-002 2.653068e-002
         vertex -4.140541e-001 5.795076e-002 2.653068e-002
         vertex -4.130122e-001 6.385960e-002 2.653068e-002
      endloop
   endfacet
   facet normal 2.002778e-030 7.105427e-015 1.000000e+000
      outer loop
         vertex -4.130122e-001 6.385960e-002 2.653068e-002
         vertex -4.140541e-001 5.795076e-002 2.653068e-002
         vertex -4.130122e-001 5.785960e-002 2.653068e-002
      endloop
   endfacet
   facet normal 2.002778e-030 7.105427e-015 1.000000e+000
      outer loop
         vertex -4.130122e-001 6.385960e-002 2.653068e-002
         vertex -4.130122e-001 5.785960e-002 2.653068e-002
         vertex -4.119703e-001 5.795076e-002 2.653068e-002
      endloop
   endfacet
   facet normal 2.002778e-030 7.105427e-015 1.000000e+000
      outer loop
         vertex -4.176085e-001 6.000288e-002 2.653068e-002
         vertex -4.168689e-001 5.926334e-002 2.653068e-002
         vertex -4.130122e-001 6.385960e-002 2.653068e-002
      endloop
   endfacet
   facet normal 2.002778e-030 7.105427e-015 1.000000e+000
      outer loop
         vertex -4.130122e-001 6.385960e-002 2.653068e-002
         vertex -4.168689e-001 5.926334e-002 2.653068e-002
         vertex -4.160122e-001 5.866345e-002 2.653068e-002
      endloop
   endfacet
   facet normal 2.002778e-030 7.105427e-015 1.000000e+000
      outer loop
         vertex -4.130122e-001 6.385960e-002 2.653068e-002
         vertex -4.160122e-001 5.866345e-002 2.653068e-002
         vertex -4.150643e-001 5.822145e-002 2.653068e-002
      endloop
   endfacet
   facet normal 2.002778e-030 7.105427e-015 1.000000e+000
      outer loop
         vertex -4.189211e-001 6.281772e-002 2.653068e-002
         vertex -4.186504e-001 6.180748e-002 2.653068e-002
         vertex -4.130122e-001 6.385960e-002 2.653068e-002
      endloop
   endfacet
   facet normal 2.002778e-030 7.105427e-015 1.000000e+000
      outer loop
         vertex -4.130122e-001 6.385960e-002 2.653068e-002
         vertex -4.186504e-001 6.180748e-002 2.653068e-002
         vertex -4.182084e-001 6.085960e-002 2.653068e-002
      endloop
   endfacet
   facet normal 2.002778e-030 7.105427e-015 1.000000e+000
      outer loop
         vertex -4.130122e-001 6.385960e-002 2.653068e-002
         vertex -4.182084e-001 6.085960e-002 2.653068e-002
         vertex -4.176085e-001 6.000288e-002 2.653068e-002
      endloop
   endfacet
   facet normal -1.161583e-001 -9.932307e-001 6.891657e-015
      outer loop
         vertex -4.130122e-001 5.785960e-002 -3.048900e-002
         vertex -4.140541e-001 5.795076e-002 2.653068e-002
         vertex -4.140541e-001 5.795076e-002 -3.048900e-002
      endloop
   endfacet
   facet normal -2.305519e-001 -9.730600e-001 6.751701e-015
      outer loop
         vertex -4.140541e-001 5.795076e-002 -3.048900e-002
         vertex -4.140541e-001 5.795076e-002 2.653068e-002
         vertex -4.150643e-001 5.822145e-002 2.653068e-002
      endloop
   endfacet
   facet normal -2.868663e-001 -9.579706e-001 6.647001e-015
      outer loop
         vertex -4.140541e-001 5.795076e-002 -3.048900e-002
         vertex -4.150643e-001 5.822145e-002 2.653068e-002
         vertex -4.150643e-001 5.822145e-002 -3.048900e-002
      endloop
   endfacet
   facet normal -3.960194e-001 -9.182422e-001 6.371340e-015
      outer loop
         vertex -4.150643e-001 5.822145e-002 -3.048900e-002
         vertex -4.150643e-001 5.822145e-002 2.653068e-002
         vertex -4.160122e-001 5.866345e-002 2.653068e-002
      endloop
   endfacet
   facet normal -4.488580e-001 -8.936031e-001 6.200379e-015
      outer loop
         vertex -4.150643e-001 5.822145e-002 -3.048900e-002
         vertex -4.160122e-001 5.866345e-002 2.653068e-002
         vertex -4.160122e-001 5.866345e-002 -3.048900e-002
      endloop
   endfacet
   facet normal -5.494540e-001 -8.355240e-001 5.797389e-015
      outer loop
         vertex -4.160122e-001 5.866345e-002 -3.048900e-002
         vertex -4.160122e-001 5.866345e-002 2.653068e-002
         vertex -4.168689e-001 5.926334e-002 2.653068e-002
      endloop
   endfacet
   facet normal -5.972114e-001 -8.020839e-001 5.565361e-015
      outer loop
         vertex -4.160122e-001 5.866345e-002 -3.048900e-002
         vertex -4.168689e-001 5.926334e-002 2.653068e-002
         vertex -4.168689e-001 5.926334e-002 -3.048900e-002
      endloop
   endfacet
   facet normal -6.861938e-001 -7.274188e-001 5.047288e-015
      outer loop
         vertex -4.168689e-001 5.926334e-002 -3.048900e-002
         vertex -4.168689e-001 5.926334e-002 2.653068e-002
         vertex -4.176085e-001 6.000288e-002 2.653068e-002
      endloop
   endfacet
   facet normal -7.274188e-001 -6.861938e-001 4.761243e-015
      outer loop
         vertex -4.168689e-001 5.926334e-002 -3.048900e-002
         vertex -4.176085e-001 6.000288e-002 2.653068e-002
         vertex -4.176085e-001 6.000288e-002 -3.048900e-002
      endloop
   endfacet
   facet normal -8.020839e-001 -5.972114e-001 4.143827e-015
      outer loop
         vertex -4.176085e-001 6.000288e-002 -3.048900e-002
         vertex -4.176085e-001 6.000288e-002 2.653068e-002
         vertex -4.182084e-001 6.085960e-002 2.653068e-002
      endloop
   endfacet
   facet normal -8.355240e-001 -5.494540e-001 3.812457e-015
      outer loop
         vertex -4.176085e-001 6.000288e-002 -3.048900e-002
         vertex -4.182084e-001 6.085960e-002 2.653068e-002
         vertex -4.182084e-001 6.085960e-002 -3.048900e-002
      endloop
   endfacet
   facet normal -8.936031e-001 -4.488580e-001 3.114458e-015
      outer loop
         vertex -4.182084e-001 6.085960e-002 -3.048900e-002
         vertex -4.182084e-001 6.085960e-002 2.653068e-002
         vertex -4.186504e-001 6.180748e-002 2.653068e-002
      endloop
   endfacet
   facet normal -9.182422e-001 -3.960194e-001 2.747831e-015
      outer loop
         vertex -4.182084e-001 6.085960e-002 -3.048900e-002
         vertex -4.186504e-001 6.180748e-002 2.653068e-002
         vertex -4.186504e-001 6.180748e-002 -3.048900e-002
      endloop
   endfacet
   facet normal -9.579706e-001 -2.868663e-001 1.990458e-015
      outer loop
         vertex -4.186504e-001 6.180748e-002 -3.048900e-002
         vertex -4.186504e-001 6.180748e-002 2.653068e-002
         vertex -4.189211e-001 6.281772e-002 2.653068e-002
      endloop
   endfacet
   facet normal -9.730600e-001 -2.305519e-001 1.599713e-015
      outer loop
         vertex -4.186504e-001 6.180748e-002 -3.048900e-002
         vertex -4.189211e-001 6.281772e-002 2.653068e-002
         vertex -4.189211e-001 6.281772e-002 -3.048900e-002
      endloop
   endfacet
   facet normal -9.932307e-001 -1.161583e-001 8.059790e-016
      outer loop
         vertex -4.189211e-001 6.281772e-002 -3.048900e-002
         vertex -4.189211e-001 6.281772e-002 2.653068e-002
         vertex -4.190122e-001 6.385960e-002 2.653068e-002
      endloop
   endfacet
   facet normal -9.983120e-001 -5.807914e-002 4.029895e-016
      outer loop
         vertex -4.189211e-001 6.281772e-002 -3.048900e-002
         vertex -4.190122e-001 6.385960e-002 2.653068e-002
         vertex -4.190122e-001 6.385960e-002 -3.048900e-002
      endloop
   endfacet
   facet normal -9.983120e-001 5.807914e-002 -4.029895e-016
      outer loop
         vertex -4.190122e-001 6.385960e-002 -3.048900e-002
         vertex -4.190122e-001 6.385960e-002 2.653068e-002
         vertex -4.189211e-001 6.490149e-002 2.653068e-002
      endloop
   endfacet
   facet normal -9.932307e-001 1.161583e-001 -8.059790e-016
      outer loop
         vertex -4.190122e-001 6.385960e-002 -3.048900e-002
         vertex -4.189211e-001 6.490149e-002 2.653068e-002
         vertex -4.189211e-001 6.490149e-002 -3.048900e-002
      endloop
   endfacet
   facet normal -9.730600e-001 2.305519e-001 -1.599713e-015
      outer loop
         vertex -4.189211e-001 6.490149e-002 -3.048900e-002
         vertex -4.189211e-001 6.490149e-002 2.653068e-002
         vertex -4.186504e-001 6.591173e-002 2.653068e-002
      endloop
   endfacet
   facet normal -9.579706e-001 2.868663e-001 -1.990458e-015
      outer loop
         vertex -4.189211e-001 6.490149e-002 -3.048900e-002
         vertex -4.186504e-001 6.591173e-002 2.653068e-002
         vertex -4.186504e-001 6.591173e-002 -3.048900e-002
      endloop
   endfacet
   facet normal -9.182422e-001 3.960194e-001 -2.747831e-015
      outer loop
         vertex -4.186504e-001 6.591173e-002 -3.048900e-002
         vertex -4.186504e-001 6.591173e-002 2.653068e-002
         vertex -4.182084e-001 6.685960e-002 2.653068e-002
      endloop
   endfacet
   facet normal -8.936031e-001 4.488580e-001 -3.114458e-015
      outer loop
         vertex -4.186504e-001 6.591173e-002 -3.048900e-002
         vertex -4.182084e-001 6.685960e-002 2.653068e-002
         vertex -4.182084e-001 6.685960e-002 -3.048900e-002
      endloop
   endfacet
   facet normal -8.355240e-001 5.494540e-001 -3.812457e-015
      outer loop
         vertex -4.182084e-001 6.685960e-002 -3.048900e-002
         vertex -4.182084e-001 6.685960e-002 2.653068e-002
         vertex -4.176085e-001 6.771633e-002 2.653068e-002
      endloop
   endfacet
   facet normal -8.020839e-001 5.972114e-001 -4.143827e-015
      outer loop
         vertex -4.182084e-001 6.685960e-002 -3.048900e-002
         vertex -4.176085e-001 6.771633e-002 2.653068e-002
         vertex -4.176085e-001 6.771633e-002 -3.048900e-002
      endloop
   endfacet
   facet normal -7.274188e-001 6.861938e-001 -4.761243e-015
      outer loop
         vertex -4.176085e-001 6.771633e-002 -3.048900e-002
         vertex -4.176085e-001 6.771633e-002 2.653068e-002
         vertex -4.168689e-001 6.845587e-002 2.653068e-002
      endloop
   endfacet
   facet normal -6.861938e-001 7.274188e-001 -5.047288e-015
      outer loop
         vertex -4.176085e-001 6.771633e-002 -3.048900e-002
         vertex -4.168689e-001 6.845587e-002 2.653068e-002
         vertex -4.168689e-001 6.845587e-002 -3.048900e-002
      endloop
   endfacet
   facet normal -5.972114e-001 8.020839e-001 -5.565361e-015
      outer loop
         vertex -4.168689e-001 6.845587e-002 -3.048900e-002
         vertex -4.168689e-001 6.845587e-002 2.653068e-002
         vertex -4.160122e-001 6.905576e-002 2.653068e-002
      endloop
   endfacet
   facet normal -5.494540e-001 8.355240e-001 -5.797389e-015
      outer loop
         vertex -4.168689e-001 6.845587e-002 -3.048900e-002
         vertex -4.160122e-001 6.905576e-002 2.653068e-002
         vertex -4.160122e-001 6.905576e-002 -3.048900e-002
      endloop
   endfacet
   facet normal -4.488580e-001 8.936031e-001 -6.200379e-015
      outer loop
         vertex -4.160122e-001 6.905576e-002 -3.048900e-002
         vertex -4.160122e-001 6.905576e-002 2.653068e-002
         vertex -4.150643e-001 6.949776e-002 2.653068e-002
      endloop
   endfacet
   facet normal -3.960194e-001 9.182422e-001 -6.371340e-015
      outer loop
         vertex -4.160122e-001 6.905576e-002 -3.048900e-002
         vertex -4.150643e-001 6.949776e-002 2.653068e-002
         vertex -4.150643e-001 6.949776e-002 -3.048900e-002
      endloop
   endfacet
   facet normal -2.868663e-001 9.579706e-001 -6.647001e-015
      outer loop
         vertex -4.150643e-001 6.949776e-002 -3.048900e-002
         vertex -4.150643e-001 6.949776e-002 2.653068e-002
         vertex -4.140541e-001 6.976845e-002 2.653068e-002
      endloop
   endfacet
   facet normal -2.305519e-001 9.730600e-001 -6.751701e-015
      outer loop
         vertex -4.150643e-001 6.949776e-002 -3.048900e-002
         vertex -4.140541e-001 6.976845e-002 2.653068e-002
         vertex -4.140541e-001 6.976845e-002 -3.048900e-002
      endloop
   endfacet
   facet normal -1.161583e-001 9.932307e-001 -6.891657e-015
      outer loop
         vertex -4.140541e-001 6.976845e-002 -3.048900e-002
         vertex -4.140541e-001 6.976845e-002 2.653068e-002
         vertex -4.130122e-001 6.985960e-002 2.653068e-002
      endloop
   endfacet
   facet normal -5.807914e-002 9.983120e-001 -6.926914e-015
      outer loop
         vertex -4.140541e-001 6.976845e-002 -3.048900e-002
         vertex -4.130122e-001 6.985960e-002 2.653068e-002
         vertex -4.130122e-001 6.985960e-002 -3.048900e-002
      endloop
   endfacet
   facet normal 5.807914e-002 9.983120e-001 -6.926914e-015
      outer loop
         vertex -4.130122e-001 6.985960e-002 -3.048900e-002
         vertex -4.130122e-001 6.985960e-002 2.653068e-002
         vertex -4.119703e-001 6.976845e-002 2.653068e-002
      endloop
   endfacet
   facet normal 1.161583e-001 9.932307e-001 -6.891657e-015
      outer loop
         vertex -4.130122e-001 6.985960e-002 -3.048900e-002
         vertex -4.119703e-001 6.976845e-002 2.653068e-002
         vertex -4.119703e-001 6.976845e-002 -3.048900e-002
      endloop
   endfacet
   facet normal 2.305519e-001 9.730600e-001 -6.751701e-015
      outer loop
         vertex -4.119703e-001 6.976845e-002 -3.048900e-002
         vertex -4.119703e-001 6.976845e-002 2.653068e-002
         vertex -4.109601e-001 6.949776e-002 2.653068e-002
      endloop
   endfacet
   facet normal 2.868663e-001 9.579706e-001 -6.647001e-015
      outer loop
         vertex -4.119703e-001 6.976845e-002 -3.048900e-002
         vertex -4.109601e-001 6.949776e-002 2.653068e-002
         vertex -4.109601e-001 6.949776e-002 -3.048900e-002
      endloop
   endfacet
   facet normal 3.960194e-001 9.182422e-001 -6.371340e-015
      outer loop
         vertex -4.109601e-001 6.949776e-002 -3.048900e-002
         vertex -4.109601e-001 6.949776e-002 2.653068e-002
         vertex -4.100122e-001 6.905576e-002 2.653068e-002
      endloop
   endfacet
   facet normal 4.488580e-001 8.936031e-001 -6.200379e-015
      outer loop
         vertex -4.109601e-001 6.949776e-002 -3.048900e-002
         vertex -4.100122e-001 6.905576e-002 2.653068e-002
         vertex -4.100122e-001 6.905576e-002 -3.048900e-002
      endloop
   endfacet
   facet normal 5.494540e-001 8.355240e-001 -5.797389e-015
      outer loop
         vertex -4.100122e-001 6.905576e-002 -3.048900e-002
         vertex -4.100122e-001 6.905576e-002 2.653068e-002
         vertex -4.091555e-001 6.845587e-002 2.653068e-002
      endloop
   endfacet
   facet normal 5.972114e-001 8.020839e-001 -5.565361e-015
      outer loop
         vertex -4.100122e-001 6.905576e-002 -3.048900e-002
         vertex -4.091555e-001 6.845587e-002 2.653068e-002
         vertex -4.091555e-001 6.845587e-002 -3.048900e-002
      endloop
   endfacet
   facet normal 6.861938e-001 7.274188e-001 -5.047288e-015
      outer loop
         vertex -4.091555e-001 6.845587e-002 -3.048900e-002
         vertex -4.091555e-001 6.845587e-002 2.653068e-002
         vertex -4.084159e-001 6.771633e-002 2.653068e-002
      endloop
   endfacet
   facet normal 7.274188e-001 6.861938e-001 -4.761243e-015
      outer loop
         vertex -4.091555e-001 6.845587e-002 -3.048900e-002
         vertex -4.084159e-001 6.771633e-002 2.653068e-002
         vertex -4.084159e-001 6.771633e-002 -3.048900e-002
      endloop
   endfacet
   facet normal 8.020839e-001 5.972114e-001 -4.143827e-015
      outer loop
         vertex -4.084159e-001 6.771633e-002 -3.048900e-002
         vertex -4.084159e-001 6.771633e-002 2.653068e-002
         vertex -4.078161e-001 6.685960e-002 2.653068e-002
      endloop
   endfacet
   facet normal 8.355240e-001 5.494540e-001 -3.812457e-015
      outer loop
         vertex -4.084159e-001 6.771633e-002 -3.048900e-002
         vertex -4.078161e-001 6.685960e-002 2.653068e-002
         vertex -4.078161e-001 6.685960e-002 -3.048900e-002
      endloop
   endfacet
   facet normal 8.936031e-001 4.488580e-001 -3.114458e-015
      outer loop
         vertex -4.078161e-001 6.685960e-002 -3.048900e-002
         vertex -4.078161e-001 6.685960e-002 2.653068e-002
         vertex -4.073741e-001 6.591173e-002 2.653068e-002
      endloop
   endfacet
   facet normal 9.182422e-001 3.960194e-001 -2.747831e-015
      outer loop
         vertex -4.078161e-001 6.685960e-002 -3.048900e-002
         vertex -4.073741e-001 6.591173e-002 2.653068e-002
         vertex -4.073741e-001 6.591173e-002 -3.048900e-002
      endloop
   endfacet
   facet normal 9.579706e-001 2.868663e-001 -1.990458e-015
      outer loop
         vertex -4.073741e-001 6.591173e-002 -3.048900e-002
         vertex -4.073741e-001 6.591173e-002 2.653068e-002
         vertex -4.071034e-001 6.490149e-002 2.653068e-002
      endloop
   endfacet
   facet normal 9.730600e-001 2.305519e-001 -1.599713e-015
      outer loop
         vertex -4.073741e-001 6.591173e-002 -3.048900e-002
         vertex -4.071034e-001 6.490149e-002 2.653068e-002
         vertex -4.071034e-001 6.490149e-002 -3.048900e-002
      endloop
   endfacet
   facet normal 9.932307e-001 1.161583e-001 -8.059790e-016
      outer loop
         vertex -4.071034e-001 6.490149e-002 -3.048900e-002
         vertex -4.071034e-001 6.490149e-002 2.653068e-002
         vertex -4.070122e-001 6.385960e-002 2.653068e-002
      endloop
   endfacet
   facet normal 9.983120e-001 5.807914e-002 -4.029895e-016
      outer loop
         vertex -4.071034e-001 6.490149e-002 -3.048900e-002
         vertex -4.070122e-001 6.385960e-002 2.653068e-002
         vertex -4.070122e-001 6.385960e-002 -3.048900e-002
      endloop
   endfacet
   facet normal 9.983120e-001 -5.807914e-002 4.029895e-016
      outer loop
         vertex -4.070122e-001 6.385960e-002 -3.048900e-002
         vertex -4.070122e-001 6.385960e-002 2.653068e-002
         vertex -4.071034e-001 6.281772e-002 2.653068e-002
      endloop
   endfacet
   facet normal 9.932307e-001 -1.161583e-001 8.059790e-016
      outer loop
         vertex -4.070122e-001 6.385960e-002 -3.048900e-002
         vertex -4.071034e-001 6.281772e-002 2.653068e-002
         vertex -4.071034e-001 6.281772e-002 -3.048900e-002
      endloop
   endfacet
   facet normal 9.730600e-001 -2.305519e-001 1.599713e-015
      outer loop
         vertex -4.071034e-001 6.281772e-002 -3.048900e-002
         vertex -4.071034e-001 6.281772e-002 2.653068e-002
         vertex -4.073741e-001 6.180748e-002 2.653068e-002
      endloop
   endfacet
   facet normal 9.579706e-001 -2.868663e-001 1.990458e-015
      outer loop
         vertex -4.071034e-001 6.281772e-002 -3.048900e-002
         vertex -4.073741e-001 6.180748e-002 2.653068e-002
         vertex -4.073741e-001 6.180748e-002 -3.048900e-002
      endloop
   endfacet
   facet normal 9.182422e-001 -3.960194e-001 2.747831e-015
      outer loop
         vertex -4.073741e-001 6.180748e-002 -3.048900e-002
         vertex -4.073741e-001 6.180748e-002 2.653068e-002
         vertex -4.078161e-001 6.085960e-002 2.653068e-002
      endloop
   endfacet
   facet normal 8.936031e-001 -4.488580e-001 3.114458e-015
      outer loop
         vertex -4.073741e-001 6.180748e-002 -3.048900e-002
         vertex -4.078161e-001 6.085960e-002 2.653068e-002
         vertex -4.078161e-001 6.085960e-002 -3.048900e-002
      endloop
   endfacet
   facet normal 8.355240e-001 -5.494540e-001 3.812457e-015
      outer loop
         vertex -4.078161e-001 6.085960e-002 -3.048900e-002
         vertex -4.078161e-001 6.085960e-002 2.653068e-002
         vertex -4.084159e-001 6.000288e-002 2.653068e-002
      endloop
   endfacet
   facet normal 8.020839e-001 -5.972114e-001 4.143827e-015
      outer loop
         vertex -4.078161e-001 6.085960e-002 -3.048900e-002
         vertex -4.084159e-001 6.000288e-002 2.653068e-002
         vertex -4.084159e-001 6.000288e-002 -3.048900e-002
      endloop
   endfacet
   facet normal 7.274188e-001 -6.861938e-001 4.761243e-015
      outer loop
         vertex -4.084159e-001 6.000288e-002 -3.048900e-002
         vertex -4.084159e-001 6.000288e-002 2.653068e-002
         vertex -4.091555e-001 5.926334e-002 2.653068e-002
      endloop
   endfacet
   facet normal 6.861938e-001 -7.274188e-001 5.047288e-015
      outer loop
         vertex -4.084159e-001 6.000288e-002 -3.048900e-002
         vertex -4.091555e-001 5.926334e-002 2.653068e-002
         vertex -4.091555e-001 5.926334e-002 -3.048900e-002
      endloop
   endfacet
   facet normal 5.972114e-001 -8.020839e-001 5.565361e-015
      outer loop
         vertex -4.091555e-001 5.926334e-002 -3.048900e-002
         vertex -4.091555e-001 5.926334e-002 2.653068e-002
         vertex -4.100122e-001 5.866345e-002 2.653068e-002
      endloop
   endfacet
   facet normal 5.494540e-001 -8.355240e-001 5.797389e-015
      outer loop
         vertex -4.091555e-001 5.926334e-002 -3.048900e-002
         vertex -4.100122e-001 5.866345e-002 2.653068e-002
         vertex -4.100122e-001 5.866345e-002 -3.048900e-002
      endloop
   endfacet
   facet normal 4.488580e-001 -8.936031e-001 6.200379e-015
      outer loop
         vertex -4.100122e-001 5.866345e-002 -3.048900e-002
         vertex -4.100122e-001 5.866345e-002 2.653068e-002
         vertex -4.109601e-001 5.822145e-002 2.653068e-002
      endloop
   endfacet
   facet normal 3.960194e-001 -9.182422e-001 6.371340e-015
      outer loop
         vertex -4.100122e-001 5.866345e-002 -3.048900e-002
         vertex -4.109601e-001 5.822145e-002 2.653068e-002
         vertex -4.109601e-001 5.822145e-002 -3.048900e-002
      endloop
   endfacet
   facet normal 2.868663e-001 -9.579706e-001 6.647001e-015
      outer loop
         vertex -4.109601e-001 5.822145e-002 -3.048900e-002
         vertex -4.109601e-001 5.822145e-002 2.653068e-002
         vertex -4.119703e-001 5.795076e-002 2.653068e-002
      endloop
   endfacet
   facet normal 2.305519e-001 -9.730600e-001 6.751701e-015
      outer loop
         vertex -4.109601e-001 5.822145e-002 -3.048900e-002
         vertex -4.119703e-001 5.795076e-002 2.653068e-002
         vertex -4.119703e-001 5.795076e-002 -3.048900e-002
      endloop
   endfacet
   facet normal 1.161583e-001 -9.932307e-001 6.891657e-015
      outer loop
         vertex -4.119703e-001 5.795076e-002 -3.048900e-002
         vertex -4.119703e-001 5.795076e-002 2.653068e-002
         vertex -4.130122e-001 5.785960e-002 2.653068e-002
      endloop
   endfacet
   facet normal 5.807914e-002 -9.983120e-001 6.926914e-015
      outer loop
         vertex -4.119703e-001 5.795076e-002 -3.048900e-002
         vertex -4.130122e-001 5.785960e-002 2.653068e-002
         vertex -4.130122e-001 5.785960e-002 -3.048900e-002
      endloop
   endfacet
   facet normal -5.807914e-002 -9.983120e-001 6.926914e-015
      outer loop
         vertex -4.130122e-001 5.785960e-002 -3.048900e-002
         vertex -4.130122e-001 5.785960e-002 2.653068e-002
         vertex -4.140541e-001 5.795076e-002 2.653068e-002
      endloop
   endfacet
   facet normal 1.183291e-030 -1.000000e+000 4.733165e-030
      outer loop
         vertex -3.920122e-001 1.881526e-009 -1.564496e-001
         vertex -3.920122e-001 1.881527e-009 -3.048900e-002
         vertex -4.170226e-001 1.881527e-009 -3.048900e-002
      endloop
   endfacet
   facet normal 1.183291e-030 -1.000000e+000 4.733165e-030
      outer loop
         vertex -4.170226e-001 1.881528e-009 -1.469319e-003
         vertex -4.870200e-001 1.881528e-009 -1.469319e-003
         vertex -4.170226e-001 1.881527e-009 -3.048900e-002
      endloop
   endfacet
   facet normal 1.183291e-030 -1.000000e+000 4.733165e-030
      outer loop
         vertex -4.170226e-001 1.881527e-009 -3.048900e-002
         vertex -4.870200e-001 1.881528e-009 -1.469319e-003
         vertex -4.870200e-001 1.881527e-009 -3.048900e-002
      endloop
   endfacet
   facet normal 1.183291e-030 -1.000000e+000 4.733165e-030
      outer loop
         vertex -4.170226e-001 1.881527e-009 -3.048900e-002
         vertex -4.870200e-001 1.881527e-009 -3.048900e-002
         vertex -3.920122e-001 1.881526e-009 -1.564496e-001
      endloop
   endfacet
   facet normal 1.183291e-030 -1.000000e+000 4.733165e-030
      outer loop
         vertex -3.920122e-001 1.881526e-009 -1.564496e-001
         vertex -4.870200e-001 1.881527e-009 -3.048900e-002
         vertex -5.000122e-001 1.881527e-009 -3.048900e-002
      endloop
   endfacet
   facet normal 1.183291e-030 -1.000000e+000 4.733165e-030
      outer loop
         vertex -3.920122e-001 1.881526e-009 -1.564496e-001
         vertex -5.000122e-001 1.881527e-009 -3.048900e-002
         vertex -5.000122e-001 1.881527e-009 -7.346948e-002
      endloop
   endfacet
   facet normal 1.183291e-030 -1.000000e+000 4.733165e-030
      outer loop
         vertex -5.000122e-001 1.881526e-009 -1.564496e-001
         vertex -3.920122e-001 1.881526e-009 -1.564496e-001
         vertex -5.000122e-001 1.881526e-009 -1.534692e-001
      endloop
   endfacet
   facet normal 1.183291e-030 -1.000000e+000 4.733165e-030
      outer loop
         vertex -5.000122e-001 1.881526e-009 -1.534692e-001
         vertex -3.920122e-001 1.881526e-009 -1.564496e-001
         vertex -5.000122e-001 1.881527e-009 -7.346948e-002
      endloop
   endfacet
   facet normal 1.183291e-030 -1.000000e+000 4.733165e-030
      outer loop
         vertex -5.000122e-001 1.881526e-009 -1.534692e-001
         vertex -5.000122e-001 1.881527e-009 -7.346948e-002
         vertex -5.600122e-001 1.881526e-009 -1.534692e-001
      endloop
   endfacet
   facet normal 1.183291e-030 -1.000000e+000 4.733165e-030
      outer loop
         vertex -5.600122e-001 1.881526e-009 -1.534692e-001
         vertex -5.000122e-001 1.881527e-009 -7.346948e-002
         vertex -5.600122e-001 1.881527e-009 -7.346948e-002
      endloop
   endfacet
endsolid